<svg xmlns="http://www.w3.org/2000/svg" xmlns:xlink="http://www.w3.org/1999/xlink" width="940" zoomAndPan="magnify" viewBox="0 0 705 591.000005" height="788" preserveAspectRatio="xMidYMid meet" version="1.0"><defs><clipPath id="09b012277d"><path d="M 185.152344 151 L 519.835938 151 L 519.835938 530.703125 L 185.152344 530.703125 Z M 185.152344 151 " clip-rule="nonzero"/></clipPath></defs><g clip-path="url(#09b012277d)"><path fill="#264de4" d="M 352.351562 530.6875 L 215.800781 492.804688 L 185.371094 151.703125 L 519.738281 151.699219 L 489.289062 492.75 L 352.359375 530.683594 Z M 352.351562 530.6875 " fill-opacity="1" fill-rule="nonzero"/></g><path fill="#2965f1" d="M 463.214844 471.035156 L 489.246094 179.589844 L 352.5625 179.585938 L 352.5625 501.683594 L 463.214844 471.03125 Z M 463.214844 471.035156 " fill-opacity="1" fill-rule="nonzero"/><path fill="#ebebeb" d="M 255.132812 306.101562 L 258.886719 347.929688 L 352.5625 347.929688 L 352.5625 306.101562 Z M 255.132812 306.101562 " fill-opacity="1" fill-rule="nonzero"/><path fill="#ebebeb" d="M 247.59375 221.417969 L 251.398438 263.253906 L 352.5625 263.253906 L 352.5625 221.417969 Z M 247.59375 221.417969 " fill-opacity="1" fill-rule="nonzero"/><path fill="#ebebeb" d="M 352.5625 414.746094 L 352.378906 414.800781 L 305.757812 402.210938 L 302.777344 368.847656 L 260.753906 368.847656 L 266.621094 434.539062 L 352.363281 458.328125 L 352.5625 458.277344 Z M 352.5625 414.746094 " fill-opacity="1" fill-rule="nonzero"/><path fill="#000000" d="M 264.066406 59 L 314.765625 59 L 314.765625 80.1875 L 285.265625 80.1875 L 285.265625 101.378906 L 314.765625 101.378906 L 314.765625 122.566406 L 264.066406 122.566406 Z M 264.066406 59 " fill-opacity="1" fill-rule="nonzero"/><path fill="#000000" d="M 324.90625 59 L 375.605469 59 L 375.605469 77.425781 L 346.113281 77.425781 L 346.113281 81.109375 L 375.605469 81.109375 L 375.605469 123.488281 L 324.90625 123.488281 L 324.90625 104.144531 L 354.410156 104.144531 L 354.410156 100.457031 L 324.90625 100.457031 Z M 324.90625 59 " fill-opacity="1" fill-rule="nonzero"/><path fill="#000000" d="M 385.75 59 L 436.449219 59 L 436.449219 77.425781 L 406.945312 77.425781 L 406.945312 81.109375 L 436.449219 81.109375 L 436.449219 123.488281 L 385.75 123.488281 L 385.75 104.144531 L 415.242188 104.144531 L 415.242188 100.457031 L 385.75 100.457031 Z M 385.75 59 " fill-opacity="1" fill-rule="nonzero"/><path fill="#ffffff" d="M 449.726562 306.101562 L 457.277344 221.417969 L 352.417969 221.417969 L 352.417969 263.253906 L 411.398438 263.253906 L 407.597656 306.101562 L 352.417969 306.101562 L 352.417969 347.929688 L 403.96875 347.929688 L 399.105469 402.1875 L 352.417969 414.789062 L 352.417969 458.304688 L 438.230469 434.539062 L 438.859375 427.46875 L 448.703125 317.328125 Z M 449.726562 306.101562 " fill-opacity="1" fill-rule="nonzero"/></svg>