<svg xmlns="http://www.w3.org/2000/svg" xmlns:xlink="http://www.w3.org/1999/xlink" width="940" zoomAndPan="magnify" viewBox="0 0 705 591.000005" height="788" preserveAspectRatio="xMidYMid meet" version="1.0"><defs><clipPath id="33b0777dc3"><path d="M 185.152344 151 L 519.835938 151 L 519.835938 530.703125 L 185.152344 530.703125 Z M 185.152344 151 " clip-rule="nonzero"/></clipPath></defs><g clip-path="url(#33b0777dc3)"><path fill="#e44d26" d="M 519.746094 151.699219 L 489.285156 492.75 L 352.351562 530.683594 L 215.800781 492.800781 L 185.371094 151.699219 L 519.738281 151.691406 L 519.75 151.691406 Z M 519.746094 151.699219 " fill-opacity="1" fill-rule="nonzero"/></g><path fill="#f16529" d="M 352.5625 501.6875 L 463.214844 471.035156 L 489.246094 179.589844 L 352.5625 179.585938 Z M 352.5625 501.6875 " fill-opacity="1" fill-rule="nonzero"/><path fill="#ebebeb" d="M 293.34375 263.253906 L 352.5625 263.253906 L 352.5625 221.417969 L 247.59375 221.417969 L 248.59375 232.644531 L 258.886719 347.929688 L 352.5625 347.929688 L 352.5625 306.101562 L 297.167969 306.101562 L 293.34375 263.257812 Z M 293.34375 263.253906 " fill-opacity="1" fill-rule="nonzero"/><path fill="#ebebeb" d="M 302.777344 368.847656 L 260.753906 368.847656 L 266.621094 434.539062 L 352.363281 458.328125 L 352.5625 458.277344 L 352.5625 414.746094 L 352.378906 414.800781 L 305.757812 402.210938 Z M 302.777344 368.847656 " fill-opacity="1" fill-rule="nonzero"/><path fill="#000000" d="M 216.484375 59 L 237.753906 59 L 237.753906 80.003906 L 257.214844 80.003906 L 257.214844 59 L 278.488281 59 L 278.488281 122.605469 L 257.214844 122.605469 L 257.214844 101.308594 L 237.753906 101.308594 L 237.753906 122.605469 L 216.484375 122.605469 Z M 216.484375 59 " fill-opacity="1" fill-rule="nonzero"/><path fill="#000000" d="M 306.464844 80.09375 L 287.738281 80.09375 L 287.738281 59 L 346.480469 59 L 346.480469 80.09375 L 327.734375 80.09375 L 327.734375 122.605469 L 306.464844 122.605469 Z M 306.464844 80.09375 " fill-opacity="1" fill-rule="nonzero"/><path fill="#000000" d="M 355.800781 59 L 377.976562 59 L 391.621094 81.351562 L 405.253906 59 L 427.445312 59 L 427.445312 122.605469 L 406.261719 122.605469 L 406.261719 91.082031 L 391.621094 113.695312 L 391.253906 113.695312 L 376.613281 91.082031 L 376.613281 122.605469 L 355.800781 122.605469 Z M 355.800781 59 " fill-opacity="1" fill-rule="nonzero"/><path fill="#000000" d="M 438.035156 59 L 459.308594 59 L 459.308594 101.582031 L 489.230469 101.582031 L 489.230469 122.605469 L 438.035156 122.605469 Z M 438.035156 59 " fill-opacity="1" fill-rule="nonzero"/><path fill="#ffffff" d="M 352.417969 347.929688 L 403.96875 347.929688 L 399.105469 402.1875 L 352.417969 414.789062 L 352.417969 458.304688 L 438.230469 434.539062 L 438.859375 427.46875 L 448.703125 317.328125 L 449.726562 306.101562 L 352.417969 306.101562 Z M 352.417969 347.929688 " fill-opacity="1" fill-rule="nonzero"/><path fill="#ffffff" d="M 352.417969 263.152344 L 352.417969 263.257812 L 453.527344 263.257812 L 454.367188 253.851562 L 456.28125 232.644531 L 457.277344 221.417969 L 352.417969 221.417969 Z M 352.417969 263.152344 " fill-opacity="1" fill-rule="nonzero"/></svg>