<svg xmlns="http://www.w3.org/2000/svg" xmlns:xlink="http://www.w3.org/1999/xlink" width="940" zoomAndPan="magnify" viewBox="0 0 705 591.000005" height="788" preserveAspectRatio="xMidYMid meet" version="1.0"><defs><clipPath id="7ab262db98"><path d="M 116.5 59 L 588.199219 59 L 588.199219 530.703125 L 116.5 530.703125 Z M 116.5 59 " clip-rule="nonzero"/></clipPath></defs><g clip-path="url(#7ab262db98)"><path fill="#f7df1e" d="M 116.5 59 L 588.199219 59 L 588.199219 530.703125 L 116.5 530.703125 Z M 116.5 59 " fill-opacity="1" fill-rule="nonzero"/></g><path fill="#000000" d="M 240.527344 453.183594 L 276.625 431.351562 C 283.589844 443.695312 289.921875 454.140625 305.125 454.140625 C 319.679688 454.140625 328.875 448.429688 328.875 426.28125 L 328.875 275.558594 L 373.191406 275.558594 L 373.191406 426.910156 C 373.191406 472.808594 346.289062 493.722656 307.023438 493.722656 C 271.558594 493.722656 250.976562 475.351562 240.527344 453.183594 " fill-opacity="1" fill-rule="nonzero"/><path fill="#000000" d="M 397.273438 448.429688 L 433.367188 427.535156 C 442.875 443.050781 455.222656 454.457031 477.054688 454.457031 C 495.425781 454.457031 507.144531 445.28125 507.144531 432.601562 C 507.144531 417.402344 495.113281 412.019531 474.84375 403.160156 L 463.769531 398.40625 C 431.785156 384.789062 410.574219 367.707031 410.574219 331.59375 C 410.574219 298.351562 435.894531 273.015625 475.488281 273.015625 C 503.664062 273.015625 523.933594 282.835938 538.488281 308.484375 L 503.976562 330.652344 C 496.386719 317.035156 488.148438 311.65625 475.488281 311.65625 C 462.5 311.65625 454.261719 319.890625 454.261719 330.652344 C 454.261719 343.957031 462.5 349.335938 481.496094 357.574219 L 492.570312 362.308594 C 530.25 378.46875 551.476562 394.921875 551.476562 431.976562 C 551.476562 471.867188 520.136719 493.722656 478.015625 493.722656 C 436.851562 493.722656 410.261719 474.078125 397.273438 448.429688 " fill-opacity="1" fill-rule="nonzero"/></svg>