<svg xmlns="http://www.w3.org/2000/svg" xmlns:xlink="http://www.w3.org/1999/xlink" width="940" zoomAndPan="magnify" viewBox="0 0 705 591.000005" height="788" preserveAspectRatio="xMidYMid meet" version="1.0"><defs><clipPath id="2809f4e1b4"><path d="M 98 68 L 607.59375 68 L 607.59375 522 L 98 522 Z M 98 68 " clip-rule="nonzero"/></clipPath></defs><g clip-path="url(#2809f4e1b4)"><path fill="#00d8ff" d="M 516.734375 215.222656 C 511.464844 213.40625 505.992188 211.6875 500.34375 210.0625 C 501.277344 206.285156 502.132812 202.558594 502.890625 198.894531 C 515.28125 138.726562 507.1875 90.253906 479.472656 74.296875 C 452.894531 58.996094 409.449219 74.949219 365.5625 113.09375 C 361.34375 116.761719 357.109375 120.644531 352.890625 124.710938 C 350.066406 122.019531 347.261719 119.417969 344.457031 116.929688 C 298.460938 76.144531 252.363281 58.957031 224.683594 74.960938 C 198.136719 90.308594 190.277344 135.875 201.449219 192.898438 C 202.527344 198.40625 203.789062 204.03125 205.214844 209.75 C 198.691406 211.597656 192.390625 213.570312 186.367188 215.667969 C 132.445312 234.441406 98.011719 263.867188 98.011719 294.394531 C 98.011719 325.90625 134.980469 357.539062 191.140625 376.714844 C 195.570312 378.222656 200.167969 379.652344 204.90625 381.003906 C 203.371094 387.183594 202.03125 393.246094 200.910156 399.167969 C 190.257812 455.199219 198.574219 499.6875 225.046875 514.925781 C 252.390625 530.683594 298.28125 514.488281 342.964844 475.484375 C 346.503906 472.40625 350.046875 469.125 353.585938 465.710938 C 358.203125 470.121094 362.796875 474.3125 367.351562 478.246094 C 410.640625 515.441406 453.394531 530.464844 479.832031 515.183594 C 507.144531 499.386719 516.039062 451.582031 504.5 393.445312 C 503.625 388.992188 502.589844 384.460938 501.457031 379.851562 C 504.679688 378.898438 507.84375 377.90625 510.925781 376.890625 C 569.3125 357.558594 607.292969 326.34375 607.292969 294.394531 C 607.292969 263.757812 571.742188 234.132812 516.734375 215.222656 Z M 504.082031 356.269531 C 501.296875 357.183594 498.433594 358.074219 495.527344 358.929688 C 489.082031 338.5625 480.390625 316.886719 469.726562 294.492188 C 479.890625 272.636719 488.246094 251.246094 494.515625 231 C 499.726562 232.503906 504.777344 234.09375 509.652344 235.765625 C 556.78125 251.972656 585.527344 275.933594 585.527344 294.394531 C 585.527344 314.046875 554.492188 339.578125 504.082031 356.269531 Z M 483.15625 397.65625 C 488.265625 423.367188 488.984375 446.613281 485.601562 464.796875 C 482.578125 481.128906 476.46875 492.015625 468.929688 496.367188 C 452.875 505.648438 418.558594 493.585938 381.558594 461.773438 C 377.300781 458.117188 373.023438 454.222656 368.746094 450.113281 C 383.089844 434.433594 397.433594 416.214844 411.4375 395.96875 C 436.046875 393.800781 459.300781 390.226562 480.410156 385.355469 C 481.445312 389.550781 482.359375 393.640625 483.15625 397.65625 Z M 271.644531 494.757812 C 255.964844 500.300781 243.476562 500.460938 235.925781 496.109375 C 219.863281 486.851562 213.183594 451.125 222.292969 403.21875 C 223.335938 397.734375 224.578125 392.09375 226.011719 386.332031 C 246.871094 390.941406 269.960938 394.257812 294.640625 396.246094 C 308.734375 416.054688 323.496094 434.253906 338.355469 450.191406 C 335.113281 453.332031 331.871094 456.3125 328.648438 459.113281 C 308.894531 476.378906 289.09375 488.617188 271.644531 494.757812 Z M 198.183594 356.148438 C 173.351562 347.664062 152.84375 336.65625 138.785156 324.617188 C 126.152344 313.828125 119.777344 303.097656 119.777344 294.394531 C 119.777344 275.875 147.421875 252.242188 193.535156 236.1875 C 199.128906 234.238281 204.988281 232.402344 211.066406 230.675781 C 217.4375 251.378906 225.796875 273.035156 235.886719 294.910156 C 225.667969 317.125 217.1875 339.121094 210.753906 360.082031 C 206.417969 358.832031 202.222656 357.519531 198.183594 356.148438 Z M 222.808594 188.722656 C 213.238281 139.871094 219.59375 103.015625 235.589844 93.769531 C 252.625 83.917969 290.300781 97.960938 330 133.179688 C 332.546875 135.429688 335.09375 137.785156 337.660156 140.222656 C 322.859375 156.09375 308.238281 174.15625 294.269531 193.847656 C 270.316406 196.0625 247.386719 199.625 226.308594 204.394531 C 224.984375 199.070312 223.8125 193.839844 222.808594 188.722656 Z M 442.472656 242.902344 C 437.441406 234.210938 432.269531 225.722656 426.996094 217.464844 C 443.25 219.515625 458.808594 222.238281 473.429688 225.570312 C 469.050781 239.621094 463.582031 254.3125 457.136719 269.378906 C 452.519531 260.613281 447.625 251.78125 442.472656 242.902344 Z M 352.894531 155.753906 C 362.9375 166.613281 372.984375 178.734375 382.871094 191.886719 C 372.90625 191.417969 362.820312 191.175781 352.652344 191.175781 C 342.585938 191.175781 332.582031 191.414062 322.675781 191.875 C 332.5625 178.84375 342.707031 166.738281 352.894531 155.753906 Z M 262.738281 243.054688 C 257.707031 251.769531 252.910156 260.554688 248.363281 269.359375 C 242.027344 254.347656 236.605469 239.59375 232.179688 225.339844 C 246.710938 222.09375 262.207031 219.4375 278.351562 217.425781 C 273 225.757812 267.785156 234.308594 262.738281 243.050781 Z M 278.816406 372.898438 C 262.132812 371.050781 246.40625 368.527344 231.878906 365.367188 C 236.378906 350.863281 241.914062 335.800781 248.386719 320.464844 C 252.945312 329.265625 257.757812 338.046875 262.824219 346.789062 C 267.984375 355.691406 273.328125 364.394531 278.816406 372.898438 Z M 353.488281 434.554688 C 343.183594 423.445312 332.898438 411.148438 322.851562 397.933594 C 332.601562 398.3125 342.546875 398.511719 352.652344 398.511719 C 363.039062 398.511719 373.304688 398.273438 383.390625 397.835938 C 373.484375 411.285156 363.457031 423.605469 353.488281 434.554688 Z M 457.335938 319.6875 C 464.136719 335.1875 469.886719 350.167969 474.441406 364.433594 C 459.683594 367.792969 443.726562 370.496094 426.9375 372.519531 C 432.230469 364.15625 437.441406 355.511719 442.574219 346.632812 C 447.765625 337.648438 452.679688 328.648438 457.335938 319.6875 Z M 423.714844 335.78125 C 415.757812 349.570312 407.582031 362.726562 399.285156 375.144531 C 384.183594 376.21875 368.570312 376.773438 352.652344 376.773438 C 336.796875 376.773438 321.382812 376.296875 306.539062 375.324219 C 297.90625 362.746094 289.5625 349.550781 281.652344 335.902344 C 273.761719 322.292969 266.503906 308.5625 259.921875 294.910156 C 266.5 281.242188 273.742188 267.492188 281.585938 253.90625 C 289.449219 240.289062 297.726562 227.152344 306.28125 214.644531 C 321.421875 213.5 336.957031 212.902344 352.652344 212.902344 C 368.429688 212.902344 383.964844 213.503906 399.105469 214.65625 C 407.539062 227.074219 415.757812 240.167969 423.65625 253.789062 C 431.632812 267.570312 438.972656 281.222656 445.597656 294.613281 C 438.992188 308.222656 431.671875 322.011719 423.714844 335.78125 Z M 468.59375 93.117188 C 485.664062 102.941406 492.289062 142.554688 481.566406 194.503906 C 480.890625 197.816406 480.113281 201.191406 479.277344 204.613281 C 458.148438 199.742188 435.210938 196.121094 411.199219 193.871094 C 397.195312 173.96875 382.695312 155.871094 368.132812 140.207031 C 372.050781 136.449219 375.96875 132.859375 379.847656 129.476562 C 417.449219 96.796875 452.601562 83.894531 468.59375 93.117188 Z M 352.652344 248.960938 C 377.761719 248.960938 398.132812 269.292969 398.132812 294.386719 C 398.132812 319.464844 377.761719 339.808594 352.652344 339.808594 C 327.546875 339.808594 307.175781 319.464844 307.175781 294.386719 C 307.175781 269.292969 327.546875 248.960938 352.652344 248.960938 Z M 352.652344 248.960938 " fill-opacity="1" fill-rule="nonzero"/></g></svg>