<svg xmlns="http://www.w3.org/2000/svg" xmlns:xlink="http://www.w3.org/1999/xlink" width="120" zoomAndPan="magnify" viewBox="0 0 90 44.999999" height="60" preserveAspectRatio="xMidYMid meet" version="1.0"><defs><clipPath id="5d7f05ad96"><path d="M 17.253906 4.5 L 59 4.5 L 59 40.5 L 17.253906 40.5 Z M 17.253906 4.5 " clip-rule="nonzero"/></clipPath><clipPath id="b09409537c"><path d="M 54 5 L 72.753906 5 L 72.753906 30 L 54 30 Z M 54 5 " clip-rule="nonzero"/></clipPath></defs><g clip-path="url(#5d7f05ad96)"><path fill="#2b2821" d="M 17.253906 40.496094 C 17.355469 40.339844 17.511719 40.296875 17.667969 40.183594 C 21.996094 37.144531 24.574219 31.070312 26.941406 26.53125 C 25.855469 31.472656 26.996094 36.675781 31.324219 40.484375 L 17.253906 40.484375 Z M 42.144531 27.113281 L 33.074219 27.113281 L 33.128906 26.855469 L 42.042969 26.855469 C 39.824219 19.90625 35.394531 12.226562 32.714844 6.765625 C 32.402344 6.195312 32 5.121094 32.097656 4.503906 C 34.9375 4.503906 38.074219 4.503906 40.910156 4.503906 C 40.855469 5.019531 40.710938 5.589844 40.710938 6.09375 C 40.710938 14.589844 51.742188 34.691406 58.335938 40.09375 C 58.390625 40.148438 58.4375 40.148438 58.4375 40.195312 L 58.695312 40.394531 C 58.75 40.453125 58.75 40.453125 58.796875 40.496094 L 40.902344 40.496094 C 41.058594 40.082031 41.515625 39.621094 41.773438 39.265625 C 42.964844 37.617188 43.367188 36.226562 43.367188 34.164062 C 43.378906 32 42.917969 29.578125 42.144531 27.113281 Z M 42.144531 27.113281 " fill-opacity="1" fill-rule="nonzero"/></g><g clip-path="url(#b09409537c)"><path fill="#0b1a5b" d="M 54.210938 24.792969 C 60.859375 24.21875 61.273438 23.703125 64.871094 20.152344 L 64.769531 29.894531 C 61.675781 26.082031 60.800781 25.464844 54.210938 24.949219 Z M 58.023438 5.0625 L 69.257812 5.0625 C 70.488281 5.0625 71.21875 5.578125 71.476562 6.8125 L 72.753906 14.121094 C 68.269531 14.121094 68.886719 5.367188 58.894531 5.367188 C 58.378906 5.367188 58.378906 5.367188 58.023438 5.308594 Z M 58.023438 5.0625 " fill-opacity="1" fill-rule="nonzero"/></g></svg>