<svg xmlns="http://www.w3.org/2000/svg" xmlns:xlink="http://www.w3.org/1999/xlink" width="120" zoomAndPan="magnify" viewBox="0 0 90 44.999999" height="60" preserveAspectRatio="xMidYMid meet" version="1.0"><defs><g/><clipPath id="78a68aa964"><path d="M 29.835938 4.5 L 53 4.5 L 53 24 L 29.835938 24 Z M 29.835938 4.5 " clip-rule="nonzero"/></clipPath><clipPath id="86443a33f4"><path d="M 49 4.5 L 59.835938 4.5 L 59.835938 19 L 49 19 Z M 49 4.5 " clip-rule="nonzero"/></clipPath></defs><g clip-path="url(#78a68aa964)"><path fill="#2b2821" d="M 29.835938 24 C 29.890625 23.914062 29.972656 23.890625 30.058594 23.828125 C 32.398438 22.183594 33.792969 18.890625 35.070312 16.433594 C 34.484375 19.109375 35.101562 21.929688 37.441406 23.992188 L 29.835938 23.992188 Z M 43.289062 16.75 L 38.386719 16.75 L 38.417969 16.609375 L 43.234375 16.609375 C 42.035156 12.84375 39.640625 8.683594 38.191406 5.726562 C 38.023438 5.417969 37.804688 4.835938 37.859375 4.5 C 39.394531 4.5 41.089844 4.5 42.625 4.5 C 42.59375 4.78125 42.515625 5.089844 42.515625 5.363281 C 42.515625 9.964844 48.476562 20.851562 52.042969 23.78125 C 52.070312 23.8125 52.097656 23.8125 52.097656 23.835938 L 52.234375 23.945312 C 52.265625 23.972656 52.265625 23.972656 52.289062 24 L 42.617188 24 C 42.703125 23.773438 42.949219 23.523438 43.089844 23.332031 C 43.730469 22.4375 43.949219 21.683594 43.949219 20.566406 C 43.957031 19.394531 43.707031 18.085938 43.289062 16.75 Z M 43.289062 16.75 " fill-opacity="1" fill-rule="nonzero"/></g><g clip-path="url(#86443a33f4)"><path fill="#0b1a5b" d="M 49.8125 15.492188 C 53.40625 15.183594 53.628906 14.902344 55.574219 12.976562 L 55.519531 18.253906 C 53.847656 16.191406 53.375 15.855469 49.8125 15.578125 Z M 51.871094 4.804688 L 57.945312 4.804688 C 58.609375 4.804688 59.003906 5.085938 59.144531 5.753906 L 59.835938 9.710938 C 57.410156 9.710938 57.746094 4.96875 52.34375 4.96875 C 52.066406 4.96875 52.066406 4.96875 51.871094 4.9375 Z M 51.871094 4.804688 " fill-opacity="1" fill-rule="nonzero"/></g><g fill="#2b2821" fill-opacity="1"><g transform="translate(13.803791, 32.037481)"><g><path d="M 1.671875 -3.65625 L 0.59375 -0.359375 C 0.5625 -0.285156 0.515625 -0.222656 0.453125 -0.171875 C 0.390625 -0.117188 0.300781 -0.09375 0.1875 -0.09375 L 0.1875 0 L 1 0 L 1 -0.09375 C 0.925781 -0.09375 0.867188 -0.0976562 0.828125 -0.109375 C 0.796875 -0.117188 0.769531 -0.132812 0.75 -0.15625 C 0.726562 -0.175781 0.710938 -0.195312 0.703125 -0.21875 C 0.691406 -0.238281 0.6875 -0.257812 0.6875 -0.28125 C 0.6875 -0.300781 0.6875 -0.316406 0.6875 -0.328125 C 0.695312 -0.347656 0.707031 -0.375 0.71875 -0.40625 L 0.9375 -1.125 L 2.015625 -1.125 L 2.359375 -0.09375 L 2.078125 -0.09375 L 2.078125 0 L 3.515625 0 L 3.515625 -0.09375 L 3.234375 -0.09375 L 2.046875 -3.65625 Z M 1.484375 -2.765625 L 1.984375 -1.203125 L 0.96875 -1.203125 Z M 1.484375 -2.765625 "/></g></g></g><g fill="#2b2821" fill-opacity="1"><g transform="translate(19.275571, 32.037481)"><g><path d="M 2.484375 -3.546875 C 2.554688 -3.546875 2.617188 -3.519531 2.671875 -3.46875 C 2.734375 -3.425781 2.765625 -3.359375 2.765625 -3.265625 L 2.765625 -1.390625 L 1.21875 -3.625 L 0.171875 -3.625 L 0.171875 -3.5 L 0.515625 -3.078125 L 0.515625 -0.359375 C 0.515625 -0.265625 0.484375 -0.195312 0.421875 -0.15625 C 0.359375 -0.113281 0.289062 -0.09375 0.21875 -0.09375 L 0.21875 0 L 0.890625 0 L 0.890625 -0.09375 C 0.816406 -0.09375 0.75 -0.113281 0.6875 -0.15625 C 0.632812 -0.195312 0.609375 -0.265625 0.609375 -0.359375 L 0.609375 -2.953125 L 2.671875 0.046875 L 2.859375 0.046875 L 2.859375 -3.265625 C 2.859375 -3.359375 2.890625 -3.425781 2.953125 -3.46875 C 3.015625 -3.519531 3.082031 -3.546875 3.15625 -3.546875 L 3.15625 -3.625 L 2.484375 -3.625 Z M 2.484375 -3.546875 "/></g></g></g><g fill="#2b2821" fill-opacity="1"><g transform="translate(24.381846, 32.037481)"><g><path d="M 3.171875 -3.671875 C 3.160156 -3.671875 3.140625 -3.660156 3.109375 -3.640625 L 2.90625 -3.421875 C 2.875 -3.453125 2.832031 -3.476562 2.78125 -3.5 C 2.726562 -3.53125 2.664062 -3.5625 2.59375 -3.59375 C 2.519531 -3.625 2.425781 -3.644531 2.3125 -3.65625 C 2.207031 -3.675781 2.082031 -3.6875 1.9375 -3.6875 C 1.632812 -3.6875 1.367188 -3.628906 1.140625 -3.515625 C 0.921875 -3.410156 0.734375 -3.269531 0.578125 -3.09375 C 0.421875 -2.914062 0.304688 -2.710938 0.234375 -2.484375 C 0.160156 -2.265625 0.125 -2.039062 0.125 -1.8125 C 0.125 -1.570312 0.160156 -1.335938 0.234375 -1.109375 C 0.304688 -0.890625 0.421875 -0.691406 0.578125 -0.515625 C 0.734375 -0.347656 0.925781 -0.207031 1.15625 -0.09375 C 1.382812 0.0078125 1.65625 0.0625 1.96875 0.0625 C 2.164062 0.0625 2.34375 0.0390625 2.5 0 C 2.664062 -0.0390625 2.8125 -0.09375 2.9375 -0.15625 C 3.0625 -0.226562 3.171875 -0.300781 3.265625 -0.375 C 3.359375 -0.457031 3.4375 -0.539062 3.5 -0.625 L 3.5 -1.234375 L 3.796875 -1.234375 L 3.796875 -1.328125 L 2.34375 -1.328125 L 2.34375 -1.234375 L 2.640625 -1.234375 L 2.640625 -0.734375 C 2.640625 -0.640625 2.625 -0.550781 2.59375 -0.46875 C 2.5625 -0.382812 2.515625 -0.304688 2.453125 -0.234375 C 2.398438 -0.171875 2.332031 -0.117188 2.25 -0.078125 C 2.175781 -0.046875 2.082031 -0.03125 1.96875 -0.03125 C 1.8125 -0.03125 1.675781 -0.0546875 1.5625 -0.109375 C 1.445312 -0.160156 1.351562 -0.242188 1.28125 -0.359375 C 1.207031 -0.484375 1.15625 -0.640625 1.125 -0.828125 C 1.09375 -1.023438 1.078125 -1.257812 1.078125 -1.53125 L 1.078125 -2.078125 C 1.078125 -2.359375 1.097656 -2.59375 1.140625 -2.78125 C 1.179688 -2.976562 1.238281 -3.132812 1.3125 -3.25 C 1.394531 -3.375 1.488281 -3.460938 1.59375 -3.515625 C 1.695312 -3.566406 1.8125 -3.59375 1.9375 -3.59375 C 2.113281 -3.59375 2.265625 -3.570312 2.390625 -3.53125 C 2.515625 -3.5 2.625 -3.445312 2.71875 -3.375 C 2.8125 -3.300781 2.890625 -3.207031 2.953125 -3.09375 C 3.015625 -2.988281 3.070312 -2.867188 3.125 -2.734375 C 3.132812 -2.710938 3.144531 -2.691406 3.15625 -2.671875 C 3.164062 -2.660156 3.175781 -2.65625 3.1875 -2.65625 C 3.207031 -2.65625 3.21875 -2.675781 3.21875 -2.71875 L 3.21875 -3.609375 C 3.21875 -3.648438 3.203125 -3.671875 3.171875 -3.671875 Z M 3.171875 -3.671875 "/></g></g></g><g fill="#2b2821" fill-opacity="1"><g transform="translate(30.100877, 32.037481)"><g><path d="M 2.15625 -1.21875 C 2.1875 -1.21875 2.203125 -1.25 2.203125 -1.3125 L 2.203125 -2.484375 C 2.203125 -2.546875 2.1875 -2.578125 2.15625 -2.578125 C 2.125 -2.578125 2.101562 -2.546875 2.09375 -2.484375 C 2.070312 -2.304688 2.023438 -2.171875 1.953125 -2.078125 C 1.878906 -1.992188 1.773438 -1.953125 1.640625 -1.953125 L 1.3125 -1.953125 L 1.3125 -3.546875 L 1.734375 -3.546875 C 1.867188 -3.546875 1.988281 -3.519531 2.09375 -3.46875 C 2.195312 -3.414062 2.285156 -3.347656 2.359375 -3.265625 C 2.441406 -3.191406 2.5 -3.101562 2.53125 -3 C 2.570312 -2.894531 2.59375 -2.796875 2.59375 -2.703125 C 2.59375 -2.648438 2.613281 -2.625 2.65625 -2.625 C 2.6875 -2.625 2.703125 -2.648438 2.703125 -2.703125 L 2.671875 -3.484375 C 2.660156 -3.535156 2.640625 -3.570312 2.609375 -3.59375 C 2.585938 -3.613281 2.550781 -3.625 2.5 -3.625 L 0.15625 -3.625 L 0.15625 -3.546875 L 0.453125 -3.546875 L 0.453125 -0.09375 L 0.15625 -0.09375 L 0.15625 0 L 2.71875 0 C 2.769531 0 2.804688 -0.015625 2.828125 -0.046875 C 2.847656 -0.078125 2.859375 -0.113281 2.859375 -0.15625 L 2.859375 -1.046875 C 2.859375 -1.097656 2.84375 -1.125 2.8125 -1.125 C 2.769531 -1.125 2.742188 -1.097656 2.734375 -1.046875 C 2.703125 -0.910156 2.671875 -0.785156 2.640625 -0.671875 C 2.609375 -0.554688 2.5625 -0.453125 2.5 -0.359375 C 2.4375 -0.273438 2.347656 -0.207031 2.234375 -0.15625 C 2.128906 -0.113281 1.992188 -0.09375 1.828125 -0.09375 L 1.3125 -0.09375 L 1.3125 -1.859375 L 1.640625 -1.859375 C 1.773438 -1.859375 1.878906 -1.8125 1.953125 -1.71875 C 2.023438 -1.632812 2.070312 -1.5 2.09375 -1.3125 C 2.101562 -1.25 2.125 -1.21875 2.15625 -1.21875 Z M 2.15625 -1.21875 "/></g></g></g><g fill="#2b2821" fill-opacity="1"><g transform="translate(34.981402, 32.037481)"><g><path d="M 0.21875 -0.09375 L 0.21875 0 L 2.875 0 L 2.875 -1.046875 C 2.875 -1.097656 2.851562 -1.125 2.8125 -1.125 C 2.78125 -1.125 2.757812 -1.101562 2.75 -1.0625 C 2.738281 -0.925781 2.710938 -0.800781 2.671875 -0.6875 C 2.640625 -0.570312 2.585938 -0.46875 2.515625 -0.375 C 2.453125 -0.289062 2.378906 -0.222656 2.296875 -0.171875 C 2.210938 -0.117188 2.109375 -0.09375 1.984375 -0.09375 L 1.375 -0.09375 L 1.375 -3.546875 L 1.671875 -3.546875 L 1.671875 -3.625 L 0.21875 -3.625 L 0.21875 -3.546875 L 0.515625 -3.546875 L 0.515625 -0.09375 Z M 0.21875 -0.09375 "/></g></g></g><g fill="#2b2821" fill-opacity="1"><g transform="translate(39.883429, 32.037481)"><g/></g></g><g fill="#0b1a5b" fill-opacity="1"><g transform="translate(43.219348, 32.037481)"><g><path d="M 2.6875 -3.484375 C 2.6875 -3.535156 2.671875 -3.570312 2.640625 -3.59375 C 2.609375 -3.613281 2.566406 -3.625 2.515625 -3.625 L 0.1875 -3.625 L 0.1875 -3.546875 L 0.46875 -3.546875 L 0.46875 -0.09375 L 0.1875 -0.09375 L 0.1875 0 L 1.625 0 L 1.625 -0.09375 L 1.34375 -0.09375 L 1.34375 -1.859375 L 1.671875 -1.859375 C 1.804688 -1.859375 1.910156 -1.8125 1.984375 -1.71875 C 2.054688 -1.632812 2.101562 -1.5 2.125 -1.3125 C 2.125 -1.25 2.140625 -1.21875 2.171875 -1.21875 C 2.203125 -1.21875 2.21875 -1.25 2.21875 -1.3125 L 2.21875 -2.484375 C 2.21875 -2.546875 2.203125 -2.578125 2.171875 -2.578125 C 2.140625 -2.578125 2.125 -2.546875 2.125 -2.484375 C 2.101562 -2.304688 2.054688 -2.171875 1.984375 -2.078125 C 1.910156 -1.992188 1.804688 -1.953125 1.671875 -1.953125 L 1.34375 -1.953125 L 1.34375 -3.546875 L 1.75 -3.546875 C 1.894531 -3.546875 2.019531 -3.519531 2.125 -3.46875 C 2.226562 -3.414062 2.316406 -3.347656 2.390625 -3.265625 C 2.460938 -3.191406 2.515625 -3.101562 2.546875 -3 C 2.585938 -2.894531 2.613281 -2.796875 2.625 -2.703125 C 2.625 -2.648438 2.640625 -2.625 2.671875 -2.625 C 2.710938 -2.625 2.734375 -2.648438 2.734375 -2.703125 Z M 2.6875 -3.484375 "/></g></g></g><g fill="#2b2821" fill-opacity="1"><g transform="translate(48.062451, 32.037481)"><g><path d="M 2.578125 -3.546875 C 2.648438 -3.546875 2.710938 -3.519531 2.765625 -3.46875 C 2.828125 -3.425781 2.859375 -3.359375 2.859375 -3.265625 L 2.859375 -1.078125 C 2.859375 -0.921875 2.835938 -0.78125 2.796875 -0.65625 C 2.753906 -0.53125 2.695312 -0.425781 2.625 -0.34375 C 2.550781 -0.257812 2.46875 -0.195312 2.375 -0.15625 C 2.28125 -0.113281 2.1875 -0.09375 2.09375 -0.09375 C 1.9375 -0.09375 1.804688 -0.113281 1.703125 -0.15625 C 1.609375 -0.195312 1.53125 -0.25 1.46875 -0.3125 C 1.414062 -0.382812 1.378906 -0.46875 1.359375 -0.5625 C 1.335938 -0.664062 1.328125 -0.773438 1.328125 -0.890625 L 1.328125 -3.546875 L 1.609375 -3.546875 L 1.609375 -3.625 L 0.171875 -3.625 L 0.171875 -3.546875 L 0.453125 -3.546875 L 0.453125 -1.0625 C 0.453125 -0.875 0.484375 -0.707031 0.546875 -0.5625 C 0.617188 -0.425781 0.710938 -0.3125 0.828125 -0.21875 C 0.941406 -0.125 1.078125 -0.0507812 1.234375 0 C 1.398438 0.0390625 1.582031 0.0625 1.78125 0.0625 C 2.164062 0.0625 2.457031 -0.03125 2.65625 -0.21875 C 2.863281 -0.414062 2.96875 -0.707031 2.96875 -1.09375 L 2.96875 -3.265625 C 2.96875 -3.359375 2.992188 -3.425781 3.046875 -3.46875 C 3.109375 -3.519531 3.175781 -3.546875 3.25 -3.546875 L 3.25 -3.625 L 2.578125 -3.625 Z M 2.578125 -3.546875 "/></g></g></g><g fill="#2b2821" fill-opacity="1"><g transform="translate(53.254727, 32.037481)"><g><path d="M 2.15625 -1.21875 C 2.1875 -1.21875 2.203125 -1.25 2.203125 -1.3125 L 2.203125 -2.484375 C 2.203125 -2.546875 2.1875 -2.578125 2.15625 -2.578125 C 2.125 -2.578125 2.101562 -2.546875 2.09375 -2.484375 C 2.070312 -2.304688 2.023438 -2.171875 1.953125 -2.078125 C 1.878906 -1.992188 1.773438 -1.953125 1.640625 -1.953125 L 1.3125 -1.953125 L 1.3125 -3.546875 L 1.734375 -3.546875 C 1.867188 -3.546875 1.988281 -3.519531 2.09375 -3.46875 C 2.195312 -3.414062 2.285156 -3.347656 2.359375 -3.265625 C 2.441406 -3.191406 2.5 -3.101562 2.53125 -3 C 2.570312 -2.894531 2.59375 -2.796875 2.59375 -2.703125 C 2.59375 -2.648438 2.613281 -2.625 2.65625 -2.625 C 2.6875 -2.625 2.703125 -2.648438 2.703125 -2.703125 L 2.671875 -3.484375 C 2.660156 -3.535156 2.640625 -3.570312 2.609375 -3.59375 C 2.585938 -3.613281 2.550781 -3.625 2.5 -3.625 L 0.15625 -3.625 L 0.15625 -3.546875 L 0.453125 -3.546875 L 0.453125 -0.09375 L 0.15625 -0.09375 L 0.15625 0 L 2.71875 0 C 2.769531 0 2.804688 -0.015625 2.828125 -0.046875 C 2.847656 -0.078125 2.859375 -0.113281 2.859375 -0.15625 L 2.859375 -1.046875 C 2.859375 -1.097656 2.84375 -1.125 2.8125 -1.125 C 2.769531 -1.125 2.742188 -1.097656 2.734375 -1.046875 C 2.703125 -0.910156 2.671875 -0.785156 2.640625 -0.671875 C 2.609375 -0.554688 2.5625 -0.453125 2.5 -0.359375 C 2.4375 -0.273438 2.347656 -0.207031 2.234375 -0.15625 C 2.128906 -0.113281 1.992188 -0.09375 1.828125 -0.09375 L 1.3125 -0.09375 L 1.3125 -1.859375 L 1.640625 -1.859375 C 1.773438 -1.859375 1.878906 -1.8125 1.953125 -1.71875 C 2.023438 -1.632812 2.070312 -1.5 2.09375 -1.3125 C 2.101562 -1.25 2.125 -1.21875 2.15625 -1.21875 Z M 2.15625 -1.21875 "/></g></g></g><g fill="#2b2821" fill-opacity="1"><g transform="translate(58.135253, 32.037481)"><g><path d="M 2.484375 -3.546875 C 2.554688 -3.546875 2.617188 -3.519531 2.671875 -3.46875 C 2.734375 -3.425781 2.765625 -3.359375 2.765625 -3.265625 L 2.765625 -1.390625 L 1.21875 -3.625 L 0.171875 -3.625 L 0.171875 -3.5 L 0.515625 -3.078125 L 0.515625 -0.359375 C 0.515625 -0.265625 0.484375 -0.195312 0.421875 -0.15625 C 0.359375 -0.113281 0.289062 -0.09375 0.21875 -0.09375 L 0.21875 0 L 0.890625 0 L 0.890625 -0.09375 C 0.816406 -0.09375 0.75 -0.113281 0.6875 -0.15625 C 0.632812 -0.195312 0.609375 -0.265625 0.609375 -0.359375 L 0.609375 -2.953125 L 2.671875 0.046875 L 2.859375 0.046875 L 2.859375 -3.265625 C 2.859375 -3.359375 2.890625 -3.425781 2.953125 -3.46875 C 3.015625 -3.519531 3.082031 -3.546875 3.15625 -3.546875 L 3.15625 -3.625 L 2.484375 -3.625 Z M 2.484375 -3.546875 "/></g></g></g><g fill="#2b2821" fill-opacity="1"><g transform="translate(63.241528, 32.037481)"><g><path d="M 2.0625 -0.09375 L 2.0625 -3.546875 L 2.296875 -3.546875 C 2.472656 -3.546875 2.625 -3.457031 2.75 -3.28125 C 2.882812 -3.101562 2.976562 -2.863281 3.03125 -2.5625 L 3.140625 -2.5625 L 3.0625 -3.515625 C 3.0625 -3.546875 3.050781 -3.570312 3.03125 -3.59375 C 3.007812 -3.613281 2.96875 -3.625 2.90625 -3.625 L 0.34375 -3.625 C 0.289062 -3.625 0.253906 -3.613281 0.234375 -3.59375 C 0.222656 -3.570312 0.210938 -3.546875 0.203125 -3.515625 L 0.125 -2.5625 L 0.234375 -2.5625 C 0.285156 -2.863281 0.375 -3.101562 0.5 -3.28125 C 0.632812 -3.457031 0.796875 -3.546875 0.984375 -3.546875 L 1.203125 -3.546875 L 1.203125 -0.09375 L 0.90625 -0.09375 L 0.90625 0 L 2.359375 0 L 2.359375 -0.09375 Z M 2.0625 -0.09375 "/></g></g></g><g fill="#2b2821" fill-opacity="1"><g transform="translate(68.310178, 32.037481)"><g><path d="M 2.15625 -1.21875 C 2.1875 -1.21875 2.203125 -1.25 2.203125 -1.3125 L 2.203125 -2.484375 C 2.203125 -2.546875 2.1875 -2.578125 2.15625 -2.578125 C 2.125 -2.578125 2.101562 -2.546875 2.09375 -2.484375 C 2.070312 -2.304688 2.023438 -2.171875 1.953125 -2.078125 C 1.878906 -1.992188 1.773438 -1.953125 1.640625 -1.953125 L 1.3125 -1.953125 L 1.3125 -3.546875 L 1.734375 -3.546875 C 1.867188 -3.546875 1.988281 -3.519531 2.09375 -3.46875 C 2.195312 -3.414062 2.285156 -3.347656 2.359375 -3.265625 C 2.441406 -3.191406 2.5 -3.101562 2.53125 -3 C 2.570312 -2.894531 2.59375 -2.796875 2.59375 -2.703125 C 2.59375 -2.648438 2.613281 -2.625 2.65625 -2.625 C 2.6875 -2.625 2.703125 -2.648438 2.703125 -2.703125 L 2.671875 -3.484375 C 2.660156 -3.535156 2.640625 -3.570312 2.609375 -3.59375 C 2.585938 -3.613281 2.550781 -3.625 2.5 -3.625 L 0.15625 -3.625 L 0.15625 -3.546875 L 0.453125 -3.546875 L 0.453125 -0.09375 L 0.15625 -0.09375 L 0.15625 0 L 2.71875 0 C 2.769531 0 2.804688 -0.015625 2.828125 -0.046875 C 2.847656 -0.078125 2.859375 -0.113281 2.859375 -0.15625 L 2.859375 -1.046875 C 2.859375 -1.097656 2.84375 -1.125 2.8125 -1.125 C 2.769531 -1.125 2.742188 -1.097656 2.734375 -1.046875 C 2.703125 -0.910156 2.671875 -0.785156 2.640625 -0.671875 C 2.609375 -0.554688 2.5625 -0.453125 2.5 -0.359375 C 2.4375 -0.273438 2.347656 -0.207031 2.234375 -0.15625 C 2.128906 -0.113281 1.992188 -0.09375 1.828125 -0.09375 L 1.3125 -0.09375 L 1.3125 -1.859375 L 1.640625 -1.859375 C 1.773438 -1.859375 1.878906 -1.8125 1.953125 -1.71875 C 2.023438 -1.632812 2.070312 -1.5 2.09375 -1.3125 C 2.101562 -1.25 2.125 -1.21875 2.15625 -1.21875 Z M 2.15625 -1.21875 "/></g></g></g><g fill="#2b2821" fill-opacity="1"><g transform="translate(73.190703, 32.037481)"><g><path d="M 2.4375 -3.671875 L 2.296875 -3.453125 C 2.222656 -3.503906 2.125 -3.554688 2 -3.609375 C 1.875 -3.660156 1.710938 -3.6875 1.515625 -3.6875 C 1.316406 -3.6875 1.144531 -3.648438 1 -3.578125 C 0.851562 -3.515625 0.726562 -3.425781 0.625 -3.3125 C 0.53125 -3.207031 0.457031 -3.082031 0.40625 -2.9375 C 0.351562 -2.789062 0.328125 -2.644531 0.328125 -2.5 C 0.328125 -2.25 0.382812 -2.035156 0.5 -1.859375 C 0.625 -1.691406 0.828125 -1.566406 1.109375 -1.484375 C 1.171875 -1.472656 1.238281 -1.457031 1.3125 -1.4375 C 1.382812 -1.414062 1.457031 -1.394531 1.53125 -1.375 C 1.601562 -1.363281 1.671875 -1.347656 1.734375 -1.328125 C 1.796875 -1.316406 1.84375 -1.304688 1.875 -1.296875 C 2.039062 -1.253906 2.15625 -1.1875 2.21875 -1.09375 C 2.28125 -1 2.3125 -0.875 2.3125 -0.71875 C 2.3125 -0.65625 2.296875 -0.582031 2.265625 -0.5 C 2.234375 -0.414062 2.1875 -0.335938 2.125 -0.265625 C 2.0625 -0.203125 1.976562 -0.144531 1.875 -0.09375 C 1.78125 -0.0507812 1.664062 -0.03125 1.53125 -0.03125 C 1.351562 -0.03125 1.195312 -0.0625 1.0625 -0.125 C 0.9375 -0.1875 0.828125 -0.269531 0.734375 -0.375 C 0.648438 -0.476562 0.578125 -0.59375 0.515625 -0.71875 C 0.460938 -0.851562 0.421875 -0.988281 0.390625 -1.125 C 0.367188 -1.164062 0.351562 -1.1875 0.34375 -1.1875 C 0.332031 -1.1875 0.320312 -1.179688 0.3125 -1.171875 C 0.3125 -1.160156 0.3125 -1.140625 0.3125 -1.109375 L 0.3125 -0.046875 C 0.3125 -0.0234375 0.3125 -0.0078125 0.3125 0 C 0.320312 0.0195312 0.332031 0.03125 0.34375 0.03125 C 0.375 0.03125 0.40625 0.00390625 0.4375 -0.046875 L 0.609375 -0.296875 C 0.640625 -0.253906 0.679688 -0.210938 0.734375 -0.171875 C 0.785156 -0.140625 0.847656 -0.101562 0.921875 -0.0625 C 0.992188 -0.03125 1.078125 -0.00390625 1.171875 0.015625 C 1.273438 0.046875 1.394531 0.0625 1.53125 0.0625 C 1.738281 0.0625 1.921875 0.03125 2.078125 -0.03125 C 2.242188 -0.101562 2.378906 -0.195312 2.484375 -0.3125 C 2.585938 -0.425781 2.664062 -0.554688 2.71875 -0.703125 C 2.769531 -0.859375 2.796875 -1.007812 2.796875 -1.15625 C 2.796875 -1.488281 2.710938 -1.753906 2.546875 -1.953125 C 2.378906 -2.160156 2.140625 -2.296875 1.828125 -2.359375 C 1.742188 -2.367188 1.644531 -2.382812 1.53125 -2.40625 C 1.414062 -2.4375 1.316406 -2.46875 1.234375 -2.5 C 1.117188 -2.539062 1.035156 -2.601562 0.984375 -2.6875 C 0.941406 -2.78125 0.921875 -2.890625 0.921875 -3.015625 C 0.921875 -3.085938 0.929688 -3.160156 0.953125 -3.234375 C 0.984375 -3.304688 1.019531 -3.367188 1.0625 -3.421875 C 1.113281 -3.472656 1.175781 -3.515625 1.25 -3.546875 C 1.332031 -3.578125 1.421875 -3.59375 1.515625 -3.59375 C 1.597656 -3.59375 1.679688 -3.582031 1.765625 -3.5625 C 1.859375 -3.539062 1.945312 -3.5 2.03125 -3.4375 C 2.113281 -3.375 2.191406 -3.285156 2.265625 -3.171875 C 2.335938 -3.066406 2.394531 -2.925781 2.4375 -2.75 C 2.445312 -2.695312 2.460938 -2.671875 2.484375 -2.671875 C 2.503906 -2.671875 2.515625 -2.675781 2.515625 -2.6875 C 2.515625 -2.707031 2.515625 -2.726562 2.515625 -2.75 L 2.515625 -3.65625 C 2.515625 -3.695312 2.507812 -3.71875 2.5 -3.71875 C 2.476562 -3.71875 2.457031 -3.703125 2.4375 -3.671875 Z M 2.4375 -3.671875 "/></g></g></g><g fill="#2b2821" fill-opacity="1"><g transform="translate(17.972258, 39.449433)"><g><path d="M 1.359375 -2.796875 L 0.140625 -2.796875 L 0.140625 -2.734375 L 0.5 -2.734375 L 0.5 -0.0625 L 0.140625 -0.0625 L 0.140625 0 L 1.359375 0 C 1.554688 0 1.734375 -0.03125 1.890625 -0.09375 C 2.046875 -0.164062 2.179688 -0.265625 2.296875 -0.390625 C 2.410156 -0.515625 2.5 -0.664062 2.5625 -0.84375 C 2.625 -1.019531 2.65625 -1.21875 2.65625 -1.4375 C 2.65625 -1.632812 2.625 -1.816406 2.5625 -1.984375 C 2.5 -2.148438 2.410156 -2.289062 2.296875 -2.40625 C 2.179688 -2.53125 2.039062 -2.625 1.875 -2.6875 C 1.71875 -2.757812 1.546875 -2.796875 1.359375 -2.796875 Z M 2.203125 -1.53125 L 2.203125 -1.328125 C 2.203125 -1.078125 2.175781 -0.867188 2.125 -0.703125 C 2.082031 -0.546875 2.019531 -0.421875 1.9375 -0.328125 C 1.863281 -0.234375 1.773438 -0.164062 1.671875 -0.125 C 1.578125 -0.0820312 1.46875 -0.0625 1.34375 -0.0625 L 0.90625 -0.0625 L 0.90625 -2.734375 L 1.34375 -2.734375 C 1.457031 -2.734375 1.566406 -2.710938 1.671875 -2.671875 C 1.773438 -2.628906 1.863281 -2.5625 1.9375 -2.46875 C 2.019531 -2.375 2.082031 -2.25 2.125 -2.09375 C 2.175781 -1.945312 2.203125 -1.757812 2.203125 -1.53125 Z M 2.203125 -1.53125 "/></g></g></g><g fill="#2b2821" fill-opacity="1"><g transform="translate(23.611336, 39.449433)"><g><path d="M 1.296875 -2.734375 L 1.296875 -2.796875 L 0.171875 -2.796875 L 0.171875 -2.734375 L 0.53125 -2.734375 L 0.53125 -0.0625 L 0.171875 -0.0625 L 0.171875 0 L 1.296875 0 L 1.296875 -0.0625 L 0.9375 -0.0625 L 0.9375 -2.734375 Z M 1.296875 -2.734375 "/></g></g></g><g fill="#2b2821" fill-opacity="1"><g transform="translate(27.975902, 39.449433)"><g><path d="M 1.421875 -2.84375 C 1.242188 -2.84375 1.078125 -2.800781 0.921875 -2.71875 C 0.773438 -2.644531 0.644531 -2.539062 0.53125 -2.40625 C 0.414062 -2.269531 0.320312 -2.113281 0.25 -1.9375 C 0.1875 -1.757812 0.15625 -1.570312 0.15625 -1.375 C 0.15625 -1.175781 0.1875 -0.988281 0.25 -0.8125 C 0.320312 -0.632812 0.414062 -0.476562 0.53125 -0.34375 C 0.644531 -0.21875 0.773438 -0.113281 0.921875 -0.03125 C 1.078125 0.0390625 1.238281 0.078125 1.40625 0.078125 C 1.539062 0.078125 1.664062 0.0546875 1.78125 0.015625 C 1.90625 -0.015625 2.007812 -0.0625 2.09375 -0.125 C 2.1875 -0.195312 2.257812 -0.289062 2.3125 -0.40625 C 2.363281 -0.519531 2.390625 -0.65625 2.390625 -0.8125 L 2.390625 -0.953125 L 2.75 -0.953125 L 2.75 -1.015625 L 1.515625 -1.015625 L 1.515625 -0.953125 L 1.96875 -0.953125 L 1.96875 -0.5625 C 1.96875 -0.5 1.957031 -0.429688 1.9375 -0.359375 C 1.925781 -0.296875 1.898438 -0.234375 1.859375 -0.171875 C 1.816406 -0.117188 1.757812 -0.078125 1.6875 -0.046875 C 1.625 -0.015625 1.535156 0 1.421875 0 C 1.179688 0 0.992188 -0.09375 0.859375 -0.28125 C 0.722656 -0.46875 0.65625 -0.753906 0.65625 -1.140625 L 0.65625 -1.640625 C 0.65625 -1.835938 0.671875 -2.003906 0.703125 -2.140625 C 0.742188 -2.285156 0.800781 -2.40625 0.875 -2.5 C 0.945312 -2.59375 1.023438 -2.660156 1.109375 -2.703125 C 1.203125 -2.742188 1.304688 -2.765625 1.421875 -2.765625 C 1.628906 -2.765625 1.800781 -2.703125 1.9375 -2.578125 C 2.082031 -2.460938 2.203125 -2.265625 2.296875 -1.984375 C 2.304688 -1.960938 2.316406 -1.953125 2.328125 -1.953125 C 2.347656 -1.953125 2.359375 -1.960938 2.359375 -1.984375 L 2.359375 -2.765625 C 2.359375 -2.796875 2.347656 -2.8125 2.328125 -2.8125 C 2.304688 -2.8125 2.289062 -2.804688 2.28125 -2.796875 C 2.28125 -2.796875 2.273438 -2.789062 2.265625 -2.78125 L 2.09375 -2.609375 C 2.007812 -2.679688 1.910156 -2.738281 1.796875 -2.78125 C 1.679688 -2.820312 1.554688 -2.84375 1.421875 -2.84375 Z M 1.421875 -2.84375 "/></g></g></g><g fill="#2b2821" fill-opacity="1"><g transform="translate(33.64404, 39.449433)"><g><path d="M 1.296875 -2.734375 L 1.296875 -2.796875 L 0.171875 -2.796875 L 0.171875 -2.734375 L 0.53125 -2.734375 L 0.53125 -0.0625 L 0.171875 -0.0625 L 0.171875 0 L 1.296875 0 L 1.296875 -0.0625 L 0.9375 -0.0625 L 0.9375 -2.734375 Z M 1.296875 -2.734375 "/></g></g></g><g fill="#2b2821" fill-opacity="1"><g transform="translate(38.008606, 39.449433)"><g><path d="M 1.5 -0.0625 L 1.5 -2.734375 L 1.859375 -2.734375 C 1.984375 -2.734375 2.09375 -2.664062 2.1875 -2.53125 C 2.28125 -2.394531 2.34375 -2.21875 2.375 -2 L 2.46875 -2 L 2.40625 -2.71875 C 2.40625 -2.769531 2.378906 -2.796875 2.328125 -2.796875 L 0.28125 -2.796875 C 0.226562 -2.796875 0.195312 -2.769531 0.1875 -2.71875 L 0.125 -2 L 0.21875 -2 C 0.25 -2.21875 0.3125 -2.394531 0.40625 -2.53125 C 0.5 -2.664062 0.609375 -2.734375 0.734375 -2.734375 L 1.09375 -2.734375 L 1.09375 -0.0625 L 0.734375 -0.0625 L 0.734375 0 L 1.859375 0 L 1.859375 -0.0625 Z M 1.5 -0.0625 "/></g></g></g><g fill="#2b2821" fill-opacity="1"><g transform="translate(43.469169, 39.449433)"><g><path d="M 0.09375 -0.0625 L 0.09375 0 L 1.015625 0 L 1.015625 -0.0625 L 0.53125 -0.0625 L 0.78125 -0.875 L 1.625 -0.875 L 1.890625 -0.0625 L 1.46875 -0.0625 L 1.46875 0 L 2.6875 0 L 2.6875 -0.0625 L 2.3125 -0.0625 L 1.40625 -2.828125 L 1.359375 -2.828125 L 0.453125 -0.0625 Z M 1.203125 -2.125 L 1.59375 -0.9375 L 0.8125 -0.9375 Z M 1.203125 -2.125 "/></g></g></g><g fill="#2b2821" fill-opacity="1"><g transform="translate(49.104094, 39.449433)"><g><path d="M 2.3125 -0.765625 C 2.289062 -0.660156 2.265625 -0.566406 2.234375 -0.484375 C 2.210938 -0.398438 2.179688 -0.328125 2.140625 -0.265625 C 2.097656 -0.203125 2.046875 -0.148438 1.984375 -0.109375 C 1.921875 -0.078125 1.835938 -0.0625 1.734375 -0.0625 L 0.890625 -0.0625 L 0.890625 -2.734375 L 1.28125 -2.734375 L 1.28125 -2.796875 L 0.125 -2.796875 L 0.125 -2.734375 L 0.484375 -2.734375 L 0.484375 -0.0625 L 0.125 -0.0625 L 0.125 0 L 2.265625 0 C 2.347656 0 2.390625 -0.046875 2.390625 -0.140625 L 2.390625 -0.75 C 2.390625 -0.820312 2.378906 -0.859375 2.359375 -0.859375 C 2.335938 -0.859375 2.320312 -0.828125 2.3125 -0.765625 Z M 2.3125 -0.765625 "/></g></g></g><g fill="#2b2821" fill-opacity="1"><g transform="translate(54.481624, 39.449433)"><g/></g></g><g fill="#2b2821" fill-opacity="1"><g transform="translate(58.489161, 39.449433)"><g><path d="M 1.359375 -2.796875 L 0.140625 -2.796875 L 0.140625 -2.734375 L 0.5 -2.734375 L 0.5 -0.0625 L 0.140625 -0.0625 L 0.140625 0 L 1.359375 0 C 1.554688 0 1.734375 -0.03125 1.890625 -0.09375 C 2.046875 -0.164062 2.179688 -0.265625 2.296875 -0.390625 C 2.410156 -0.515625 2.5 -0.664062 2.5625 -0.84375 C 2.625 -1.019531 2.65625 -1.21875 2.65625 -1.4375 C 2.65625 -1.632812 2.625 -1.816406 2.5625 -1.984375 C 2.5 -2.148438 2.410156 -2.289062 2.296875 -2.40625 C 2.179688 -2.53125 2.039062 -2.625 1.875 -2.6875 C 1.71875 -2.757812 1.546875 -2.796875 1.359375 -2.796875 Z M 2.203125 -1.53125 L 2.203125 -1.328125 C 2.203125 -1.078125 2.175781 -0.867188 2.125 -0.703125 C 2.082031 -0.546875 2.019531 -0.421875 1.9375 -0.328125 C 1.863281 -0.234375 1.773438 -0.164062 1.671875 -0.125 C 1.578125 -0.0820312 1.46875 -0.0625 1.34375 -0.0625 L 0.90625 -0.0625 L 0.90625 -2.734375 L 1.34375 -2.734375 C 1.457031 -2.734375 1.566406 -2.710938 1.671875 -2.671875 C 1.773438 -2.628906 1.863281 -2.5625 1.9375 -2.46875 C 2.019531 -2.375 2.082031 -2.25 2.125 -2.09375 C 2.175781 -1.945312 2.203125 -1.757812 2.203125 -1.53125 Z M 2.203125 -1.53125 "/></g></g></g><g fill="#2b2821" fill-opacity="1"><g transform="translate(64.128241, 39.449433)"><g><path d="M 0.890625 -1.4375 L 1.21875 -1.4375 C 1.28125 -1.4375 1.328125 -1.425781 1.359375 -1.40625 C 1.398438 -1.394531 1.429688 -1.367188 1.453125 -1.328125 C 1.472656 -1.296875 1.488281 -1.253906 1.5 -1.203125 C 1.507812 -1.160156 1.519531 -1.113281 1.53125 -1.0625 C 1.539062 -1.019531 1.554688 -1 1.578125 -1 C 1.585938 -1 1.59375 -1.015625 1.59375 -1.046875 L 1.59375 -1.890625 C 1.59375 -1.921875 1.585938 -1.9375 1.578125 -1.9375 C 1.554688 -1.9375 1.539062 -1.921875 1.53125 -1.890625 C 1.519531 -1.828125 1.507812 -1.769531 1.5 -1.71875 C 1.488281 -1.675781 1.472656 -1.640625 1.453125 -1.609375 C 1.429688 -1.578125 1.398438 -1.550781 1.359375 -1.53125 C 1.328125 -1.507812 1.28125 -1.5 1.21875 -1.5 L 0.890625 -1.5 L 0.890625 -2.734375 L 1.53125 -2.734375 C 1.625 -2.734375 1.703125 -2.707031 1.765625 -2.65625 C 1.828125 -2.613281 1.878906 -2.554688 1.921875 -2.484375 C 1.960938 -2.421875 1.988281 -2.347656 2 -2.265625 C 2.019531 -2.191406 2.03125 -2.125 2.03125 -2.0625 C 2.03125 -2.019531 2.039062 -2 2.0625 -2 C 2.082031 -2 2.09375 -2.019531 2.09375 -2.0625 L 2.09375 -2.6875 C 2.09375 -2.757812 2.0625 -2.796875 2 -2.796875 L 0.140625 -2.796875 L 0.140625 -2.734375 L 0.5 -2.734375 L 0.5 -0.0625 L 0.140625 -0.0625 L 0.140625 0 L 2.09375 0 C 2.175781 0 2.21875 -0.046875 2.21875 -0.140625 L 2.21875 -0.75 C 2.21875 -0.820312 2.207031 -0.859375 2.1875 -0.859375 C 2.164062 -0.859375 2.148438 -0.828125 2.140625 -0.765625 C 2.117188 -0.660156 2.09375 -0.566406 2.0625 -0.484375 C 2.039062 -0.398438 2.007812 -0.328125 1.96875 -0.265625 C 1.925781 -0.203125 1.875 -0.148438 1.8125 -0.109375 C 1.75 -0.078125 1.664062 -0.0625 1.5625 -0.0625 L 0.890625 -0.0625 Z M 0.890625 -1.4375 "/></g></g></g><g fill="#2b2821" fill-opacity="1"><g transform="translate(69.401983, 39.449433)"><g><path d="M 1.171875 -2.796875 L 0.046875 -2.796875 L 0.046875 -2.734375 L 0.40625 -2.734375 L 1.34375 0.046875 L 1.40625 0.046875 L 2.296875 -2.734375 L 2.609375 -2.734375 L 2.609375 -2.796875 L 1.859375 -2.796875 L 1.859375 -2.734375 L 2.21875 -2.734375 L 1.53125 -0.578125 L 0.796875 -2.734375 L 1.171875 -2.734375 Z M 1.171875 -2.796875 "/></g></g></g></svg>