<svg xmlns="http://www.w3.org/2000/svg" xmlns:xlink="http://www.w3.org/1999/xlink" width="120" zoomAndPan="magnify" viewBox="0 0 90 44.999999" height="60" preserveAspectRatio="xMidYMid meet" version="1.0"><defs><g/><clipPath id="47cc2da9e0"><path d="M 4.5 10.332031 L 33 10.332031 L 33 34.332031 L 4.5 34.332031 Z M 4.5 10.332031 " clip-rule="nonzero"/></clipPath><clipPath id="fbc4de1f57"><path d="M 29 10.332031 L 42 10.332031 L 42 28 L 29 28 Z M 29 10.332031 " clip-rule="nonzero"/></clipPath></defs><g clip-path="url(#47cc2da9e0)"><path fill="#2b2821" d="M 4.5 34.332031 C 4.566406 34.226562 4.675781 34.195312 4.78125 34.121094 C 7.703125 32.097656 9.445312 28.046875 11.046875 25.019531 C 10.3125 28.316406 11.082031 31.78125 14.007812 34.324219 L 4.5 34.324219 Z M 21.316406 25.40625 L 15.1875 25.40625 L 15.226562 25.234375 L 21.25 25.234375 C 19.75 20.601562 16.757812 15.484375 14.945312 11.84375 C 14.734375 11.460938 14.460938 10.746094 14.53125 10.332031 C 16.445312 10.332031 18.566406 10.332031 20.484375 10.332031 C 20.445312 10.675781 20.347656 11.058594 20.347656 11.394531 C 20.347656 17.058594 27.804688 30.460938 32.257812 34.0625 C 32.296875 34.101562 32.324219 34.101562 32.324219 34.128906 L 32.5 34.265625 C 32.539062 34.300781 32.539062 34.300781 32.566406 34.332031 L 20.476562 34.332031 C 20.582031 34.054688 20.894531 33.75 21.066406 33.507812 C 21.871094 32.410156 22.144531 31.484375 22.144531 30.109375 C 22.152344 28.667969 21.839844 27.050781 21.316406 25.40625 Z M 21.316406 25.40625 " fill-opacity="1" fill-rule="nonzero"/></g><g clip-path="url(#fbc4de1f57)"><path fill="#0b1a5b" d="M 29.46875 23.859375 C 33.960938 23.480469 34.242188 23.136719 36.675781 20.765625 L 36.605469 27.261719 C 34.515625 24.71875 33.925781 24.308594 29.46875 23.964844 Z M 32.046875 10.707031 L 39.636719 10.707031 C 40.46875 10.707031 40.960938 11.050781 41.136719 11.875 L 42 16.746094 C 38.96875 16.746094 39.386719 10.910156 32.636719 10.910156 C 32.289062 10.910156 32.289062 10.910156 32.046875 10.871094 Z M 32.046875 10.707031 " fill-opacity="1" fill-rule="nonzero"/></g><g fill="#2b2821" fill-opacity="1"><g transform="translate(45.244982, 21.29168)"><g><path d="M 1 -2.171875 L 0.34375 -0.21875 C 0.332031 -0.175781 0.304688 -0.132812 0.265625 -0.09375 C 0.222656 -0.0625 0.171875 -0.046875 0.109375 -0.046875 L 0.109375 0 L 0.59375 0 L 0.59375 -0.046875 C 0.550781 -0.046875 0.519531 -0.0507812 0.5 -0.0625 C 0.476562 -0.0703125 0.457031 -0.0820312 0.4375 -0.09375 C 0.425781 -0.101562 0.414062 -0.113281 0.40625 -0.125 C 0.40625 -0.144531 0.40625 -0.160156 0.40625 -0.171875 C 0.40625 -0.179688 0.40625 -0.191406 0.40625 -0.203125 C 0.414062 -0.210938 0.421875 -0.222656 0.421875 -0.234375 L 0.5625 -0.671875 L 1.203125 -0.671875 L 1.40625 -0.046875 L 1.234375 -0.046875 L 1.234375 0 L 2.09375 0 L 2.09375 -0.046875 L 1.921875 -0.046875 L 1.21875 -2.171875 Z M 0.875 -1.640625 L 1.171875 -0.71875 L 0.578125 -0.71875 Z M 0.875 -1.640625 "/></g></g></g><g fill="#2b2821" fill-opacity="1"><g transform="translate(48.491643, 21.29168)"><g><path d="M 1.46875 -2.09375 C 1.507812 -2.09375 1.546875 -2.078125 1.578125 -2.046875 C 1.617188 -2.023438 1.640625 -1.988281 1.640625 -1.9375 L 1.640625 -0.828125 L 0.71875 -2.15625 L 0.109375 -2.15625 L 0.109375 -2.078125 L 0.296875 -1.828125 L 0.296875 -0.21875 C 0.296875 -0.164062 0.28125 -0.125 0.25 -0.09375 C 0.21875 -0.0625 0.175781 -0.046875 0.125 -0.046875 L 0.125 0 L 0.53125 0 L 0.53125 -0.046875 C 0.488281 -0.046875 0.445312 -0.0625 0.40625 -0.09375 C 0.375 -0.125 0.359375 -0.164062 0.359375 -0.21875 L 0.359375 -1.75 L 1.59375 0.03125 L 1.703125 0.03125 L 1.703125 -1.9375 C 1.703125 -1.988281 1.71875 -2.023438 1.75 -2.046875 C 1.78125 -2.078125 1.820312 -2.09375 1.875 -2.09375 L 1.875 -2.15625 L 1.46875 -2.15625 Z M 1.46875 -2.09375 "/></g></g></g><g fill="#2b2821" fill-opacity="1"><g transform="translate(51.521434, 21.29168)"><g><path d="M 1.890625 -2.171875 C 1.878906 -2.171875 1.863281 -2.164062 1.84375 -2.15625 L 1.71875 -2.03125 C 1.707031 -2.039062 1.6875 -2.054688 1.65625 -2.078125 C 1.625 -2.097656 1.582031 -2.113281 1.53125 -2.125 C 1.488281 -2.144531 1.4375 -2.160156 1.375 -2.171875 C 1.3125 -2.179688 1.238281 -2.1875 1.15625 -2.1875 C 0.976562 -2.1875 0.820312 -2.15625 0.6875 -2.09375 C 0.550781 -2.03125 0.4375 -1.945312 0.34375 -1.84375 C 0.25 -1.738281 0.175781 -1.617188 0.125 -1.484375 C 0.0820312 -1.347656 0.0625 -1.210938 0.0625 -1.078125 C 0.0625 -0.929688 0.0820312 -0.789062 0.125 -0.65625 C 0.175781 -0.53125 0.25 -0.414062 0.34375 -0.3125 C 0.4375 -0.207031 0.550781 -0.125 0.6875 -0.0625 C 0.820312 0 0.984375 0.03125 1.171875 0.03125 C 1.285156 0.03125 1.390625 0.0195312 1.484375 0 C 1.578125 -0.0195312 1.660156 -0.0507812 1.734375 -0.09375 C 1.816406 -0.132812 1.882812 -0.175781 1.9375 -0.21875 C 1.988281 -0.269531 2.035156 -0.316406 2.078125 -0.359375 L 2.078125 -0.734375 L 2.25 -0.734375 L 2.25 -0.796875 L 1.390625 -0.796875 L 1.390625 -0.734375 L 1.5625 -0.734375 L 1.5625 -0.4375 C 1.5625 -0.382812 1.550781 -0.332031 1.53125 -0.28125 C 1.519531 -0.226562 1.492188 -0.179688 1.453125 -0.140625 C 1.421875 -0.109375 1.378906 -0.078125 1.328125 -0.046875 C 1.285156 -0.0234375 1.234375 -0.015625 1.171875 -0.015625 C 1.078125 -0.015625 0.992188 -0.03125 0.921875 -0.0625 C 0.859375 -0.09375 0.804688 -0.144531 0.765625 -0.21875 C 0.722656 -0.289062 0.691406 -0.378906 0.671875 -0.484375 C 0.648438 -0.597656 0.640625 -0.738281 0.640625 -0.90625 L 0.640625 -1.234375 C 0.640625 -1.398438 0.648438 -1.539062 0.671875 -1.65625 C 0.703125 -1.769531 0.738281 -1.859375 0.78125 -1.921875 C 0.820312 -1.992188 0.875 -2.046875 0.9375 -2.078125 C 1.007812 -2.109375 1.082031 -2.125 1.15625 -2.125 C 1.25 -2.125 1.332031 -2.113281 1.40625 -2.09375 C 1.488281 -2.070312 1.554688 -2.039062 1.609375 -2 C 1.671875 -1.957031 1.71875 -1.90625 1.75 -1.84375 C 1.789062 -1.78125 1.828125 -1.707031 1.859375 -1.625 C 1.859375 -1.613281 1.859375 -1.601562 1.859375 -1.59375 C 1.867188 -1.582031 1.878906 -1.578125 1.890625 -1.578125 C 1.898438 -1.578125 1.90625 -1.585938 1.90625 -1.609375 L 1.90625 -2.140625 C 1.90625 -2.160156 1.898438 -2.171875 1.890625 -2.171875 Z M 1.890625 -2.171875 "/></g></g></g><g fill="#2b2821" fill-opacity="1"><g transform="translate(54.914802, 21.29168)"><g><path d="M 1.28125 -0.71875 C 1.300781 -0.71875 1.3125 -0.738281 1.3125 -0.78125 L 1.3125 -1.46875 C 1.3125 -1.507812 1.300781 -1.53125 1.28125 -1.53125 C 1.257812 -1.53125 1.25 -1.507812 1.25 -1.46875 C 1.238281 -1.363281 1.207031 -1.285156 1.15625 -1.234375 C 1.113281 -1.179688 1.050781 -1.15625 0.96875 -1.15625 L 0.78125 -1.15625 L 0.78125 -2.09375 L 1.03125 -2.09375 C 1.113281 -2.09375 1.1875 -2.078125 1.25 -2.046875 C 1.3125 -2.023438 1.363281 -1.988281 1.40625 -1.9375 C 1.445312 -1.894531 1.476562 -1.84375 1.5 -1.78125 C 1.519531 -1.71875 1.535156 -1.65625 1.546875 -1.59375 C 1.546875 -1.570312 1.554688 -1.5625 1.578125 -1.5625 C 1.597656 -1.5625 1.609375 -1.570312 1.609375 -1.59375 L 1.578125 -2.0625 C 1.578125 -2.09375 1.566406 -2.113281 1.546875 -2.125 C 1.535156 -2.144531 1.515625 -2.15625 1.484375 -2.15625 L 0.09375 -2.15625 L 0.09375 -2.09375 L 0.265625 -2.09375 L 0.265625 -0.046875 L 0.09375 -0.046875 L 0.09375 0 L 1.609375 0 C 1.640625 0 1.660156 -0.00390625 1.671875 -0.015625 C 1.691406 -0.0351562 1.703125 -0.0625 1.703125 -0.09375 L 1.703125 -0.625 C 1.703125 -0.65625 1.6875 -0.671875 1.65625 -0.671875 C 1.632812 -0.671875 1.625 -0.65625 1.625 -0.625 C 1.601562 -0.539062 1.582031 -0.460938 1.5625 -0.390625 C 1.550781 -0.328125 1.523438 -0.269531 1.484375 -0.21875 C 1.441406 -0.164062 1.390625 -0.125 1.328125 -0.09375 C 1.265625 -0.0625 1.179688 -0.046875 1.078125 -0.046875 L 0.78125 -0.046875 L 0.78125 -1.109375 L 0.96875 -1.109375 C 1.050781 -1.109375 1.113281 -1.078125 1.15625 -1.015625 C 1.207031 -0.960938 1.238281 -0.882812 1.25 -0.78125 C 1.25 -0.738281 1.257812 -0.71875 1.28125 -0.71875 Z M 1.28125 -0.71875 "/></g></g></g><g fill="#2b2821" fill-opacity="1"><g transform="translate(57.810644, 21.29168)"><g><path d="M 0.125 -0.046875 L 0.125 0 L 1.703125 0 L 1.703125 -0.625 C 1.703125 -0.65625 1.691406 -0.671875 1.671875 -0.671875 C 1.648438 -0.671875 1.640625 -0.660156 1.640625 -0.640625 C 1.628906 -0.554688 1.609375 -0.476562 1.578125 -0.40625 C 1.554688 -0.332031 1.523438 -0.269531 1.484375 -0.21875 C 1.453125 -0.164062 1.410156 -0.125 1.359375 -0.09375 C 1.304688 -0.0703125 1.242188 -0.0625 1.171875 -0.0625 L 0.8125 -0.0625 L 0.8125 -2.09375 L 0.984375 -2.09375 L 0.984375 -2.15625 L 0.125 -2.15625 L 0.125 -2.09375 L 0.296875 -2.09375 L 0.296875 -0.046875 Z M 0.125 -0.046875 "/></g></g></g><g fill="#2b2821" fill-opacity="1"><g transform="translate(60.719245, 21.29168)"><g/></g></g><g fill="#0b1a5b" fill-opacity="1"><g transform="translate(62.698601, 21.29168)"><g><path d="M 1.59375 -2.0625 C 1.59375 -2.09375 1.582031 -2.113281 1.5625 -2.125 C 1.550781 -2.144531 1.53125 -2.15625 1.5 -2.15625 L 0.109375 -2.15625 L 0.109375 -2.09375 L 0.28125 -2.09375 L 0.28125 -0.046875 L 0.109375 -0.046875 L 0.109375 0 L 0.96875 0 L 0.96875 -0.046875 L 0.796875 -0.046875 L 0.796875 -1.109375 L 0.984375 -1.109375 C 1.066406 -1.109375 1.128906 -1.078125 1.171875 -1.015625 C 1.210938 -0.960938 1.238281 -0.882812 1.25 -0.78125 C 1.257812 -0.738281 1.269531 -0.71875 1.28125 -0.71875 C 1.300781 -0.71875 1.3125 -0.738281 1.3125 -0.78125 L 1.3125 -1.46875 C 1.3125 -1.507812 1.300781 -1.53125 1.28125 -1.53125 C 1.269531 -1.53125 1.257812 -1.507812 1.25 -1.46875 C 1.238281 -1.363281 1.210938 -1.285156 1.171875 -1.234375 C 1.128906 -1.179688 1.066406 -1.15625 0.984375 -1.15625 L 0.796875 -1.15625 L 0.796875 -2.09375 L 1.046875 -2.09375 C 1.117188 -2.09375 1.1875 -2.078125 1.25 -2.046875 C 1.3125 -2.023438 1.363281 -1.988281 1.40625 -1.9375 C 1.457031 -1.894531 1.492188 -1.84375 1.515625 -1.78125 C 1.535156 -1.71875 1.550781 -1.65625 1.5625 -1.59375 C 1.5625 -1.570312 1.570312 -1.5625 1.59375 -1.5625 C 1.613281 -1.5625 1.625 -1.570312 1.625 -1.59375 Z M 1.59375 -2.0625 "/></g></g></g><g fill="#2b2821" fill-opacity="1"><g transform="translate(65.57224, 21.29168)"><g><path d="M 1.53125 -2.09375 C 1.570312 -2.09375 1.609375 -2.078125 1.640625 -2.046875 C 1.679688 -2.023438 1.703125 -1.988281 1.703125 -1.9375 L 1.703125 -0.640625 C 1.703125 -0.546875 1.6875 -0.460938 1.65625 -0.390625 C 1.632812 -0.316406 1.601562 -0.253906 1.5625 -0.203125 C 1.519531 -0.148438 1.46875 -0.113281 1.40625 -0.09375 C 1.351562 -0.0703125 1.296875 -0.0625 1.234375 -0.0625 C 1.148438 -0.0625 1.078125 -0.0703125 1.015625 -0.09375 C 0.953125 -0.113281 0.90625 -0.144531 0.875 -0.1875 C 0.84375 -0.226562 0.816406 -0.273438 0.796875 -0.328125 C 0.785156 -0.390625 0.78125 -0.457031 0.78125 -0.53125 L 0.78125 -2.09375 L 0.953125 -2.09375 L 0.953125 -2.15625 L 0.09375 -2.15625 L 0.09375 -2.09375 L 0.265625 -2.09375 L 0.265625 -0.640625 C 0.265625 -0.523438 0.285156 -0.425781 0.328125 -0.34375 C 0.367188 -0.257812 0.421875 -0.1875 0.484375 -0.125 C 0.554688 -0.0703125 0.640625 -0.03125 0.734375 0 C 0.835938 0.0195312 0.945312 0.03125 1.0625 0.03125 C 1.289062 0.03125 1.460938 -0.0195312 1.578125 -0.125 C 1.691406 -0.238281 1.75 -0.410156 1.75 -0.640625 L 1.75 -1.9375 C 1.75 -1.988281 1.765625 -2.023438 1.796875 -2.046875 C 1.835938 -2.078125 1.878906 -2.09375 1.921875 -2.09375 L 1.921875 -2.15625 L 1.53125 -2.15625 Z M 1.53125 -2.09375 "/></g></g></g><g fill="#2b2821" fill-opacity="1"><g transform="translate(68.653059, 21.29168)"><g><path d="M 1.28125 -0.71875 C 1.300781 -0.71875 1.3125 -0.738281 1.3125 -0.78125 L 1.3125 -1.46875 C 1.3125 -1.507812 1.300781 -1.53125 1.28125 -1.53125 C 1.257812 -1.53125 1.25 -1.507812 1.25 -1.46875 C 1.238281 -1.363281 1.207031 -1.285156 1.15625 -1.234375 C 1.113281 -1.179688 1.050781 -1.15625 0.96875 -1.15625 L 0.78125 -1.15625 L 0.78125 -2.09375 L 1.03125 -2.09375 C 1.113281 -2.09375 1.1875 -2.078125 1.25 -2.046875 C 1.3125 -2.023438 1.363281 -1.988281 1.40625 -1.9375 C 1.445312 -1.894531 1.476562 -1.84375 1.5 -1.78125 C 1.519531 -1.71875 1.535156 -1.65625 1.546875 -1.59375 C 1.546875 -1.570312 1.554688 -1.5625 1.578125 -1.5625 C 1.597656 -1.5625 1.609375 -1.570312 1.609375 -1.59375 L 1.578125 -2.0625 C 1.578125 -2.09375 1.566406 -2.113281 1.546875 -2.125 C 1.535156 -2.144531 1.515625 -2.15625 1.484375 -2.15625 L 0.09375 -2.15625 L 0.09375 -2.09375 L 0.265625 -2.09375 L 0.265625 -0.046875 L 0.09375 -0.046875 L 0.09375 0 L 1.609375 0 C 1.640625 0 1.660156 -0.00390625 1.671875 -0.015625 C 1.691406 -0.0351562 1.703125 -0.0625 1.703125 -0.09375 L 1.703125 -0.625 C 1.703125 -0.65625 1.6875 -0.671875 1.65625 -0.671875 C 1.632812 -0.671875 1.625 -0.65625 1.625 -0.625 C 1.601562 -0.539062 1.582031 -0.460938 1.5625 -0.390625 C 1.550781 -0.328125 1.523438 -0.269531 1.484375 -0.21875 C 1.441406 -0.164062 1.390625 -0.125 1.328125 -0.09375 C 1.265625 -0.0625 1.179688 -0.046875 1.078125 -0.046875 L 0.78125 -0.046875 L 0.78125 -1.109375 L 0.96875 -1.109375 C 1.050781 -1.109375 1.113281 -1.078125 1.15625 -1.015625 C 1.207031 -0.960938 1.238281 -0.882812 1.25 -0.78125 C 1.25 -0.738281 1.257812 -0.71875 1.28125 -0.71875 Z M 1.28125 -0.71875 "/></g></g></g><g fill="#2b2821" fill-opacity="1"><g transform="translate(71.548902, 21.29168)"><g><path d="M 1.46875 -2.09375 C 1.507812 -2.09375 1.546875 -2.078125 1.578125 -2.046875 C 1.617188 -2.023438 1.640625 -1.988281 1.640625 -1.9375 L 1.640625 -0.828125 L 0.71875 -2.15625 L 0.109375 -2.15625 L 0.109375 -2.078125 L 0.296875 -1.828125 L 0.296875 -0.21875 C 0.296875 -0.164062 0.28125 -0.125 0.25 -0.09375 C 0.21875 -0.0625 0.175781 -0.046875 0.125 -0.046875 L 0.125 0 L 0.53125 0 L 0.53125 -0.046875 C 0.488281 -0.046875 0.445312 -0.0625 0.40625 -0.09375 C 0.375 -0.125 0.359375 -0.164062 0.359375 -0.21875 L 0.359375 -1.75 L 1.59375 0.03125 L 1.703125 0.03125 L 1.703125 -1.9375 C 1.703125 -1.988281 1.71875 -2.023438 1.75 -2.046875 C 1.78125 -2.078125 1.820312 -2.09375 1.875 -2.09375 L 1.875 -2.15625 L 1.46875 -2.15625 Z M 1.46875 -2.09375 "/></g></g></g><g fill="#2b2821" fill-opacity="1"><g transform="translate(74.578693, 21.29168)"><g><path d="M 1.234375 -0.046875 L 1.234375 -2.09375 L 1.359375 -2.09375 C 1.460938 -2.09375 1.550781 -2.039062 1.625 -1.9375 C 1.707031 -1.832031 1.765625 -1.691406 1.796875 -1.515625 L 1.859375 -1.515625 L 1.8125 -2.078125 C 1.8125 -2.097656 1.804688 -2.113281 1.796875 -2.125 C 1.785156 -2.144531 1.765625 -2.15625 1.734375 -2.15625 L 0.203125 -2.15625 C 0.171875 -2.15625 0.148438 -2.144531 0.140625 -2.125 C 0.128906 -2.113281 0.125 -2.097656 0.125 -2.078125 L 0.078125 -1.515625 L 0.140625 -1.515625 C 0.171875 -1.691406 0.222656 -1.832031 0.296875 -1.9375 C 0.378906 -2.039062 0.472656 -2.09375 0.578125 -2.09375 L 0.71875 -2.09375 L 0.71875 -0.046875 L 0.546875 -0.046875 L 0.546875 0 L 1.40625 0 L 1.40625 -0.046875 Z M 1.234375 -0.046875 "/></g></g></g><g fill="#2b2821" fill-opacity="1"><g transform="translate(77.586159, 21.29168)"><g><path d="M 1.28125 -0.71875 C 1.300781 -0.71875 1.3125 -0.738281 1.3125 -0.78125 L 1.3125 -1.46875 C 1.3125 -1.507812 1.300781 -1.53125 1.28125 -1.53125 C 1.257812 -1.53125 1.25 -1.507812 1.25 -1.46875 C 1.238281 -1.363281 1.207031 -1.285156 1.15625 -1.234375 C 1.113281 -1.179688 1.050781 -1.15625 0.96875 -1.15625 L 0.78125 -1.15625 L 0.78125 -2.09375 L 1.03125 -2.09375 C 1.113281 -2.09375 1.1875 -2.078125 1.25 -2.046875 C 1.3125 -2.023438 1.363281 -1.988281 1.40625 -1.9375 C 1.445312 -1.894531 1.476562 -1.84375 1.5 -1.78125 C 1.519531 -1.71875 1.535156 -1.65625 1.546875 -1.59375 C 1.546875 -1.570312 1.554688 -1.5625 1.578125 -1.5625 C 1.597656 -1.5625 1.609375 -1.570312 1.609375 -1.59375 L 1.578125 -2.0625 C 1.578125 -2.09375 1.566406 -2.113281 1.546875 -2.125 C 1.535156 -2.144531 1.515625 -2.15625 1.484375 -2.15625 L 0.09375 -2.15625 L 0.09375 -2.09375 L 0.265625 -2.09375 L 0.265625 -0.046875 L 0.09375 -0.046875 L 0.09375 0 L 1.609375 0 C 1.640625 0 1.660156 -0.00390625 1.671875 -0.015625 C 1.691406 -0.0351562 1.703125 -0.0625 1.703125 -0.09375 L 1.703125 -0.625 C 1.703125 -0.65625 1.6875 -0.671875 1.65625 -0.671875 C 1.632812 -0.671875 1.625 -0.65625 1.625 -0.625 C 1.601562 -0.539062 1.582031 -0.460938 1.5625 -0.390625 C 1.550781 -0.328125 1.523438 -0.269531 1.484375 -0.21875 C 1.441406 -0.164062 1.390625 -0.125 1.328125 -0.09375 C 1.265625 -0.0625 1.179688 -0.046875 1.078125 -0.046875 L 0.78125 -0.046875 L 0.78125 -1.109375 L 0.96875 -1.109375 C 1.050781 -1.109375 1.113281 -1.078125 1.15625 -1.015625 C 1.207031 -0.960938 1.238281 -0.882812 1.25 -0.78125 C 1.25 -0.738281 1.257812 -0.71875 1.28125 -0.71875 Z M 1.28125 -0.71875 "/></g></g></g><g fill="#2b2821" fill-opacity="1"><g transform="translate(80.482002, 21.29168)"><g><path d="M 1.453125 -2.171875 L 1.359375 -2.046875 C 1.316406 -2.078125 1.257812 -2.109375 1.1875 -2.140625 C 1.113281 -2.171875 1.019531 -2.1875 0.90625 -2.1875 C 0.789062 -2.1875 0.6875 -2.164062 0.59375 -2.125 C 0.507812 -2.082031 0.4375 -2.03125 0.375 -1.96875 C 0.3125 -1.90625 0.265625 -1.828125 0.234375 -1.734375 C 0.203125 -1.648438 0.1875 -1.566406 0.1875 -1.484375 C 0.1875 -1.335938 0.222656 -1.210938 0.296875 -1.109375 C 0.367188 -1.003906 0.488281 -0.929688 0.65625 -0.890625 C 0.6875 -0.867188 0.722656 -0.851562 0.765625 -0.84375 C 0.816406 -0.832031 0.863281 -0.820312 0.90625 -0.8125 C 0.945312 -0.8125 0.984375 -0.804688 1.015625 -0.796875 C 1.054688 -0.785156 1.085938 -0.773438 1.109375 -0.765625 C 1.210938 -0.742188 1.28125 -0.703125 1.3125 -0.640625 C 1.351562 -0.585938 1.375 -0.519531 1.375 -0.4375 C 1.375 -0.382812 1.363281 -0.332031 1.34375 -0.28125 C 1.320312 -0.238281 1.289062 -0.195312 1.25 -0.15625 C 1.21875 -0.125 1.171875 -0.09375 1.109375 -0.0625 C 1.054688 -0.03125 0.988281 -0.015625 0.90625 -0.015625 C 0.800781 -0.015625 0.707031 -0.0351562 0.625 -0.078125 C 0.550781 -0.117188 0.488281 -0.164062 0.4375 -0.21875 C 0.382812 -0.28125 0.34375 -0.347656 0.3125 -0.421875 C 0.28125 -0.503906 0.253906 -0.582031 0.234375 -0.65625 C 0.222656 -0.6875 0.210938 -0.703125 0.203125 -0.703125 C 0.191406 -0.703125 0.1875 -0.695312 0.1875 -0.6875 C 0.1875 -0.6875 0.1875 -0.675781 0.1875 -0.65625 L 0.1875 -0.03125 C 0.1875 -0.0195312 0.1875 -0.0078125 0.1875 0 C 0.1875 0.0078125 0.191406 0.015625 0.203125 0.015625 C 0.222656 0.015625 0.242188 0 0.265625 -0.03125 L 0.359375 -0.171875 C 0.378906 -0.148438 0.40625 -0.125 0.4375 -0.09375 C 0.46875 -0.0703125 0.503906 -0.0507812 0.546875 -0.03125 C 0.585938 -0.0078125 0.632812 0.00390625 0.6875 0.015625 C 0.75 0.0234375 0.820312 0.03125 0.90625 0.03125 C 1.03125 0.03125 1.140625 0.0078125 1.234375 -0.03125 C 1.328125 -0.0703125 1.40625 -0.125 1.46875 -0.1875 C 1.53125 -0.257812 1.578125 -0.335938 1.609375 -0.421875 C 1.640625 -0.503906 1.65625 -0.59375 1.65625 -0.6875 C 1.65625 -0.882812 1.601562 -1.039062 1.5 -1.15625 C 1.40625 -1.28125 1.265625 -1.359375 1.078125 -1.390625 C 1.035156 -1.398438 0.976562 -1.410156 0.90625 -1.421875 C 0.84375 -1.441406 0.785156 -1.460938 0.734375 -1.484375 C 0.660156 -1.503906 0.609375 -1.539062 0.578125 -1.59375 C 0.554688 -1.644531 0.546875 -1.710938 0.546875 -1.796875 C 0.546875 -1.835938 0.550781 -1.878906 0.5625 -1.921875 C 0.582031 -1.960938 0.601562 -2 0.625 -2.03125 C 0.65625 -2.0625 0.691406 -2.082031 0.734375 -2.09375 C 0.785156 -2.113281 0.84375 -2.125 0.90625 -2.125 C 0.945312 -2.125 0.992188 -2.117188 1.046875 -2.109375 C 1.097656 -2.097656 1.148438 -2.070312 1.203125 -2.03125 C 1.253906 -2 1.300781 -1.945312 1.34375 -1.875 C 1.382812 -1.8125 1.421875 -1.726562 1.453125 -1.625 C 1.453125 -1.601562 1.457031 -1.59375 1.46875 -1.59375 C 1.476562 -1.59375 1.484375 -1.59375 1.484375 -1.59375 C 1.492188 -1.601562 1.5 -1.617188 1.5 -1.640625 L 1.5 -2.171875 C 1.5 -2.191406 1.492188 -2.203125 1.484375 -2.203125 C 1.472656 -2.203125 1.460938 -2.191406 1.453125 -2.171875 Z M 1.453125 -2.171875 "/></g></g></g><g fill="#2b2821" fill-opacity="1"><g transform="translate(47.718326, 25.689536)"><g><path d="M 0.8125 -1.65625 L 0.078125 -1.65625 L 0.078125 -1.625 L 0.296875 -1.625 L 0.296875 -0.046875 L 0.078125 -0.046875 L 0.078125 0 L 0.8125 0 C 0.925781 0 1.03125 -0.0195312 1.125 -0.0625 C 1.21875 -0.101562 1.296875 -0.160156 1.359375 -0.234375 C 1.429688 -0.304688 1.484375 -0.394531 1.515625 -0.5 C 1.554688 -0.601562 1.578125 -0.71875 1.578125 -0.84375 C 1.578125 -0.96875 1.554688 -1.078125 1.515625 -1.171875 C 1.484375 -1.273438 1.429688 -1.363281 1.359375 -1.4375 C 1.296875 -1.507812 1.21875 -1.5625 1.125 -1.59375 C 1.03125 -1.632812 0.925781 -1.65625 0.8125 -1.65625 Z M 1.3125 -0.90625 L 1.3125 -0.78125 C 1.3125 -0.632812 1.296875 -0.515625 1.265625 -0.421875 C 1.242188 -0.328125 1.207031 -0.25 1.15625 -0.1875 C 1.113281 -0.132812 1.0625 -0.0976562 1 -0.078125 C 0.9375 -0.0546875 0.867188 -0.046875 0.796875 -0.046875 L 0.53125 -0.046875 L 0.53125 -1.625 L 0.796875 -1.625 C 0.867188 -1.625 0.9375 -1.609375 1 -1.578125 C 1.0625 -1.554688 1.113281 -1.515625 1.15625 -1.453125 C 1.207031 -1.398438 1.242188 -1.328125 1.265625 -1.234375 C 1.296875 -1.148438 1.3125 -1.039062 1.3125 -0.90625 Z M 1.3125 -0.90625 "/></g></g></g><g fill="#2b2821" fill-opacity="1"><g transform="translate(51.064254, 25.689536)"><g><path d="M 0.765625 -1.625 L 0.765625 -1.65625 L 0.109375 -1.65625 L 0.109375 -1.625 L 0.3125 -1.625 L 0.3125 -0.046875 L 0.109375 -0.046875 L 0.109375 0 L 0.765625 0 L 0.765625 -0.046875 L 0.5625 -0.046875 L 0.5625 -1.625 Z M 0.765625 -1.625 "/></g></g></g><g fill="#2b2821" fill-opacity="1"><g transform="translate(53.653954, 25.689536)"><g><path d="M 0.84375 -1.6875 C 0.738281 -1.6875 0.640625 -1.660156 0.546875 -1.609375 C 0.460938 -1.566406 0.382812 -1.503906 0.3125 -1.421875 C 0.238281 -1.347656 0.179688 -1.257812 0.140625 -1.15625 C 0.109375 -1.050781 0.09375 -0.9375 0.09375 -0.8125 C 0.09375 -0.695312 0.113281 -0.585938 0.15625 -0.484375 C 0.195312 -0.378906 0.25 -0.285156 0.3125 -0.203125 C 0.382812 -0.128906 0.460938 -0.0664062 0.546875 -0.015625 C 0.640625 0.0234375 0.738281 0.046875 0.84375 0.046875 C 0.914062 0.046875 0.988281 0.0351562 1.0625 0.015625 C 1.132812 -0.00390625 1.195312 -0.0351562 1.25 -0.078125 C 1.300781 -0.117188 1.34375 -0.171875 1.375 -0.234375 C 1.40625 -0.304688 1.421875 -0.390625 1.421875 -0.484375 L 1.421875 -0.5625 L 1.640625 -0.5625 L 1.640625 -0.609375 L 0.90625 -0.609375 L 0.90625 -0.5625 L 1.171875 -0.5625 L 1.171875 -0.328125 C 1.171875 -0.296875 1.164062 -0.257812 1.15625 -0.21875 C 1.144531 -0.175781 1.128906 -0.140625 1.109375 -0.109375 C 1.085938 -0.078125 1.054688 -0.0507812 1.015625 -0.03125 C 0.972656 -0.0078125 0.914062 0 0.84375 0 C 0.695312 0 0.582031 -0.0546875 0.5 -0.171875 C 0.425781 -0.285156 0.390625 -0.453125 0.390625 -0.671875 L 0.390625 -0.984375 C 0.390625 -1.097656 0.398438 -1.195312 0.421875 -1.28125 C 0.441406 -1.363281 0.472656 -1.429688 0.515625 -1.484375 C 0.554688 -1.535156 0.601562 -1.570312 0.65625 -1.59375 C 0.71875 -1.625 0.78125 -1.640625 0.84375 -1.640625 C 0.96875 -1.640625 1.070312 -1.601562 1.15625 -1.53125 C 1.238281 -1.46875 1.304688 -1.351562 1.359375 -1.1875 C 1.367188 -1.164062 1.378906 -1.15625 1.390625 -1.15625 C 1.398438 -1.15625 1.40625 -1.164062 1.40625 -1.1875 L 1.40625 -1.640625 C 1.40625 -1.660156 1.394531 -1.671875 1.375 -1.671875 C 1.375 -1.671875 1.367188 -1.664062 1.359375 -1.65625 C 1.359375 -1.65625 1.351562 -1.65625 1.34375 -1.65625 L 1.234375 -1.546875 C 1.191406 -1.585938 1.132812 -1.617188 1.0625 -1.640625 C 1 -1.671875 0.925781 -1.6875 0.84375 -1.6875 Z M 0.84375 -1.6875 "/></g></g></g><g fill="#2b2821" fill-opacity="1"><g transform="translate(57.017124, 25.689536)"><g><path d="M 0.765625 -1.625 L 0.765625 -1.65625 L 0.109375 -1.65625 L 0.109375 -1.625 L 0.3125 -1.625 L 0.3125 -0.046875 L 0.109375 -0.046875 L 0.109375 0 L 0.765625 0 L 0.765625 -0.046875 L 0.5625 -0.046875 L 0.5625 -1.625 Z M 0.765625 -1.625 "/></g></g></g><g fill="#2b2821" fill-opacity="1"><g transform="translate(59.606824, 25.689536)"><g><path d="M 0.890625 -0.046875 L 0.890625 -1.625 L 1.109375 -1.625 C 1.179688 -1.625 1.242188 -1.582031 1.296875 -1.5 C 1.359375 -1.425781 1.398438 -1.320312 1.421875 -1.1875 L 1.46875 -1.1875 L 1.421875 -1.609375 C 1.421875 -1.640625 1.40625 -1.65625 1.375 -1.65625 L 0.15625 -1.65625 C 0.125 -1.65625 0.109375 -1.640625 0.109375 -1.609375 L 0.078125 -1.1875 L 0.125 -1.1875 C 0.144531 -1.320312 0.179688 -1.425781 0.234375 -1.5 C 0.296875 -1.582031 0.363281 -1.625 0.4375 -1.625 L 0.65625 -1.625 L 0.65625 -0.046875 L 0.4375 -0.046875 L 0.4375 0 L 1.109375 0 L 1.109375 -0.046875 Z M 0.890625 -0.046875 "/></g></g></g><g fill="#2b2821" fill-opacity="1"><g transform="translate(62.846831, 25.689536)"><g><path d="M 0.046875 -0.046875 L 0.046875 0 L 0.609375 0 L 0.609375 -0.046875 L 0.3125 -0.046875 L 0.46875 -0.515625 L 0.96875 -0.515625 L 1.125 -0.046875 L 0.875 -0.046875 L 0.875 0 L 1.59375 0 L 1.59375 -0.046875 L 1.375 -0.046875 L 0.84375 -1.6875 L 0.8125 -1.6875 L 0.265625 -0.046875 Z M 0.71875 -1.265625 L 0.953125 -0.5625 L 0.484375 -0.5625 Z M 0.71875 -1.265625 "/></g></g></g><g fill="#2b2821" fill-opacity="1"><g transform="translate(66.190294, 25.689536)"><g><path d="M 1.375 -0.453125 C 1.351562 -0.390625 1.335938 -0.332031 1.328125 -0.28125 C 1.316406 -0.226562 1.296875 -0.179688 1.265625 -0.140625 C 1.242188 -0.109375 1.210938 -0.0820312 1.171875 -0.0625 C 1.140625 -0.0507812 1.09375 -0.046875 1.03125 -0.046875 L 0.53125 -0.046875 L 0.53125 -1.625 L 0.765625 -1.625 L 0.765625 -1.65625 L 0.078125 -1.65625 L 0.078125 -1.625 L 0.28125 -1.625 L 0.28125 -0.046875 L 0.078125 -0.046875 L 0.078125 0 L 1.34375 0 C 1.394531 0 1.421875 -0.0234375 1.421875 -0.078125 L 1.421875 -0.453125 C 1.421875 -0.492188 1.410156 -0.515625 1.390625 -0.515625 C 1.378906 -0.515625 1.375 -0.492188 1.375 -0.453125 Z M 1.375 -0.453125 "/></g></g></g><g fill="#2b2821" fill-opacity="1"><g transform="translate(69.381033, 25.689536)"><g/></g></g><g fill="#2b2821" fill-opacity="1"><g transform="translate(71.758891, 25.689536)"><g><path d="M 0.8125 -1.65625 L 0.078125 -1.65625 L 0.078125 -1.625 L 0.296875 -1.625 L 0.296875 -0.046875 L 0.078125 -0.046875 L 0.078125 0 L 0.8125 0 C 0.925781 0 1.03125 -0.0195312 1.125 -0.0625 C 1.21875 -0.101562 1.296875 -0.160156 1.359375 -0.234375 C 1.429688 -0.304688 1.484375 -0.394531 1.515625 -0.5 C 1.554688 -0.601562 1.578125 -0.71875 1.578125 -0.84375 C 1.578125 -0.96875 1.554688 -1.078125 1.515625 -1.171875 C 1.484375 -1.273438 1.429688 -1.363281 1.359375 -1.4375 C 1.296875 -1.507812 1.21875 -1.5625 1.125 -1.59375 C 1.03125 -1.632812 0.925781 -1.65625 0.8125 -1.65625 Z M 1.3125 -0.90625 L 1.3125 -0.78125 C 1.3125 -0.632812 1.296875 -0.515625 1.265625 -0.421875 C 1.242188 -0.328125 1.207031 -0.25 1.15625 -0.1875 C 1.113281 -0.132812 1.0625 -0.0976562 1 -0.078125 C 0.9375 -0.0546875 0.867188 -0.046875 0.796875 -0.046875 L 0.53125 -0.046875 L 0.53125 -1.625 L 0.796875 -1.625 C 0.867188 -1.625 0.9375 -1.609375 1 -1.578125 C 1.0625 -1.554688 1.113281 -1.515625 1.15625 -1.453125 C 1.207031 -1.398438 1.242188 -1.328125 1.265625 -1.234375 C 1.296875 -1.148438 1.3125 -1.039062 1.3125 -0.90625 Z M 1.3125 -0.90625 "/></g></g></g><g fill="#2b2821" fill-opacity="1"><g transform="translate(75.10482, 25.689536)"><g><path d="M 0.53125 -0.859375 L 0.734375 -0.859375 C 0.765625 -0.859375 0.789062 -0.851562 0.8125 -0.84375 C 0.832031 -0.832031 0.847656 -0.816406 0.859375 -0.796875 C 0.878906 -0.773438 0.890625 -0.75 0.890625 -0.71875 C 0.898438 -0.6875 0.90625 -0.65625 0.90625 -0.625 C 0.914062 -0.601562 0.925781 -0.59375 0.9375 -0.59375 C 0.945312 -0.59375 0.953125 -0.601562 0.953125 -0.625 L 0.953125 -1.125 C 0.953125 -1.144531 0.945312 -1.15625 0.9375 -1.15625 C 0.925781 -1.15625 0.914062 -1.144531 0.90625 -1.125 C 0.90625 -1.082031 0.898438 -1.046875 0.890625 -1.015625 C 0.890625 -0.992188 0.878906 -0.972656 0.859375 -0.953125 C 0.847656 -0.929688 0.832031 -0.914062 0.8125 -0.90625 C 0.789062 -0.894531 0.765625 -0.890625 0.734375 -0.890625 L 0.53125 -0.890625 L 0.53125 -1.625 L 0.90625 -1.625 C 0.96875 -1.625 1.015625 -1.609375 1.046875 -1.578125 C 1.085938 -1.546875 1.117188 -1.507812 1.140625 -1.46875 C 1.160156 -1.4375 1.175781 -1.394531 1.1875 -1.34375 C 1.195312 -1.300781 1.203125 -1.265625 1.203125 -1.234375 C 1.203125 -1.203125 1.210938 -1.1875 1.234375 -1.1875 C 1.242188 -1.1875 1.25 -1.195312 1.25 -1.21875 L 1.25 -1.59375 C 1.25 -1.632812 1.226562 -1.65625 1.1875 -1.65625 L 0.078125 -1.65625 L 0.078125 -1.625 L 0.296875 -1.625 L 0.296875 -0.046875 L 0.078125 -0.046875 L 0.078125 0 L 1.25 0 C 1.289062 0 1.3125 -0.0234375 1.3125 -0.078125 L 1.3125 -0.453125 C 1.3125 -0.492188 1.304688 -0.515625 1.296875 -0.515625 C 1.285156 -0.515625 1.273438 -0.492188 1.265625 -0.453125 C 1.253906 -0.390625 1.238281 -0.332031 1.21875 -0.28125 C 1.207031 -0.226562 1.1875 -0.179688 1.15625 -0.140625 C 1.132812 -0.109375 1.101562 -0.0820312 1.0625 -0.0625 C 1.03125 -0.0507812 0.988281 -0.046875 0.9375 -0.046875 L 0.53125 -0.046875 Z M 0.53125 -0.859375 "/></g></g></g><g fill="#2b2821" fill-opacity="1"><g transform="translate(78.233976, 25.689536)"><g><path d="M 0.6875 -1.65625 L 0.03125 -1.65625 L 0.03125 -1.625 L 0.234375 -1.625 L 0.796875 0.03125 L 0.84375 0.03125 L 1.375 -1.625 L 1.546875 -1.625 L 1.546875 -1.65625 L 1.109375 -1.65625 L 1.109375 -1.625 L 1.3125 -1.625 L 0.90625 -0.34375 L 0.46875 -1.625 L 0.6875 -1.625 Z M 0.6875 -1.65625 "/></g></g></g></svg>